<svg class="main-svg" xmlns="http://www.w3.org/2000/svg" xmlns:xlink="http://www.w3.org/1999/xlink" width="700" height="500" style="" viewBox="0 0 700 500"><rect x="0" y="0" width="700" height="500" style="fill: rgb(255, 255, 255); fill-opacity: 1;"/><defs id="defs-392465"><g class="clips"><clipPath id="clip392465xyplot" class="plotclip"><rect width="557.2984626921634" height="361.62495313085867"/></clipPath><clipPath id="clip392465x2y2plot" class="plotclip"><rect width="250.7843082114736" height="101.25498687664043"/></clipPath><clipPath class="axesclip" id="clip392465x"><rect x="89.32695913010873" y="0" width="557.2984626921634" height="500"/></clipPath><clipPath class="axesclip" id="clip392465y"><rect x="0" y="71.47919010123734" width="700" height="361.62495313085867"/></clipPath><clipPath class="axesclip" id="clip392465xy"><rect x="89.32695913010873" y="71.47919010123734" width="557.2984626921634" height="361.62495313085867"/></clipPath><clipPath class="axesclip" id="clip392465y2"><rect x="0" y="288.45416197975254" width="700" height="101.25498687664043"/></clipPath><clipPath class="axesclip" id="clip392465xy2"><rect x="89.32695913010873" y="288.45416197975254" width="557.2984626921634" height="101.25498687664043"/></clipPath><clipPath class="axesclip" id="clip392465x2"><rect x="150.62979002624672" y="0" width="250.7843082114736" height="500"/></clipPath><clipPath class="axesclip" id="clip392465x2y"><rect x="150.62979002624672" y="71.47919010123734" width="250.7843082114736" height="361.62495313085867"/></clipPath><clipPath class="axesclip" id="clip392465x2y2"><rect x="150.62979002624672" y="288.45416197975254" width="250.7843082114736" height="101.25498687664043"/></clipPath></g><g class="gradients"/></defs><g class="bglayer"/><g class="layer-below"><g class="imagelayer"/><g class="shapelayer"/></g><g class="cartesianlayer"><g class="subplot xy"><g class="layer-subplot"><g class="shapelayer"/><g class="imagelayer"/></g><g class="gridlayer"><g class="x"><path class="xgrid crisp" transform="translate(105.09695913010873,0)" d="M0,71.47919010123734v361.62495313085867" style="stroke: rgb(0, 0, 0); stroke-opacity: 0.1; stroke-width: 0.5px;"/><path class="xgrid crisp" transform="translate(236.53695913010876,0)" d="M0,71.47919010123734v361.62495313085867" style="stroke: rgb(0, 0, 0); stroke-opacity: 0.1; stroke-width: 0.5px;"/><path class="xgrid crisp" transform="translate(367.9769591301087,0)" d="M0,71.47919010123734v361.62495313085867" style="stroke: rgb(0, 0, 0); stroke-opacity: 0.1; stroke-width: 0.5px;"/><path class="xgrid crisp" transform="translate(499.4169591301087,0)" d="M0,71.47919010123734v361.62495313085867" style="stroke: rgb(0, 0, 0); stroke-opacity: 0.1; stroke-width: 0.5px;"/><path class="xgrid crisp" transform="translate(630.8569591301087,0)" d="M0,71.47919010123734v361.62495313085867" style="stroke: rgb(0, 0, 0); stroke-opacity: 0.1; stroke-width: 0.5px;"/></g><g class="y"><path class="ygrid crisp" transform="translate(0,81.70919010123734)" d="M89.32695913010873,0h557.2984626921634" style="stroke: rgb(0, 0, 0); stroke-opacity: 0.1; stroke-width: 0.5px;"/><path class="ygrid crisp" transform="translate(0,166.99919010123733)" d="M89.32695913010873,0h557.2984626921634" style="stroke: rgb(0, 0, 0); stroke-opacity: 0.1; stroke-width: 0.5px;"/><path class="ygrid crisp" transform="translate(0,252.28919010123735)" d="M89.32695913010873,0h557.2984626921634" style="stroke: rgb(0, 0, 0); stroke-opacity: 0.1; stroke-width: 0.5px;"/><path class="ygrid crisp" transform="translate(0,337.5791901012374)" d="M89.32695913010873,0h557.2984626921634" style="stroke: rgb(0, 0, 0); stroke-opacity: 0.1; stroke-width: 0.5px;"/><path class="ygrid crisp" transform="translate(0,422.86919010123734)" d="M89.32695913010873,0h557.2984626921634" style="stroke: rgb(0, 0, 0); stroke-opacity: 0.1; stroke-width: 0.5px;"/></g></g><g class="zerolinelayer"/><path class="xlines-below"/><path class="ylines-below"/><g class="overlines-below"/><g class="xaxislayer-below"/><g class="yaxislayer-below"/><g class="overaxes-below"/><g class="plot" transform="translate(89.32695913010873,71.47919010123734)" clip-path="url('#clip392465xyplot')"><g class="scatterlayer mlayer"><g class="trace scatter tracec7b547" style="stroke-miterlimit: 2; opacity: 1;"><g class="fills"/><g class="errorbars"/><g class="lines"><path class="js-line" d="M15.77,10.23L541.53,351.39" style="vector-effect: non-scaling-stroke; fill: none; stroke: rgb(70, 130, 180); stroke-opacity: 1; stroke-width: 1px; opacity: 1;"/></g><g class="points"/><g class="text"/></g><g class="trace scatter tracec171f8" style="stroke-miterlimit: 2; opacity: 1;"><g class="fills"/><g class="errorbars"/><g class="lines"><path class="js-line" d="M15.77,10.23L26.29,17.06L31.55,19.02L57.83,29.08L63.09,32.41L126.18,74.08L131.44,77.72L178.76,111.65L184.01,115.43L236.59,152L241.85,155.56L315.45,204.36L320.71,207.8L541.53,351.39" style="vector-effect: non-scaling-stroke; fill: none; stroke: rgb(70, 130, 180); stroke-opacity: 1; stroke-width: 1px; opacity: 1;"/></g><g class="points"/><g class="text"/></g><g class="trace scatter tracef74368" style="stroke-miterlimit: 2; opacity: 1;"><g class="fills"/><g class="errorbars"/><g class="lines"><path class="js-line" d="M15.77,10.23L26.29,17.06L31.55,19.02L57.83,29.08L63.09,31.13L78.86,37.03L84.12,39.26L94.64,44.42L99.89,47.88L131.44,69.31L136.7,73.07L162.98,92.91L168.24,97.06L220.82,138.16L226.07,142.06L262.88,168.3L268.13,171.93L331.22,214.32L336.48,217.79L494.21,320.66L499.47,324.07L541.53,351.38" style="vector-effect: non-scaling-stroke; fill: none; stroke: rgb(70, 130, 180); stroke-opacity: 1; stroke-width: 1px; opacity: 1;"/></g><g class="points"/><g class="text"/></g><g class="trace scatter tracefb0005" style="stroke-miterlimit: 2; opacity: 1;"><g class="fills"/><g class="errorbars"/><g class="lines"><path class="js-line" d="M15.77,10.23L26.29,17.06L31.55,19.02L57.83,29.08L63.09,31.13L78.86,37.03L84.12,39.26L126.18,57.09L131.44,60.79L157.73,80.38L162.98,84.55L189.27,106.52L194.53,111.06L231.33,142.07L236.59,146.26L268.13,170.08L273.39,173.87L315.45,203.14L320.71,206.7L394.31,255.53L399.57,258.97L541.53,351.37" style="vector-effect: non-scaling-stroke; fill: none; stroke: rgb(70, 130, 180); stroke-opacity: 1; stroke-width: 1px; opacity: 1;"/></g><g class="points"/><g class="text"/></g><g class="trace scatter trace719048" style="stroke-miterlimit: 2; opacity: 1;"><g class="fills"/><g class="errorbars"/><g class="lines"><path class="js-line" d="M15.77,10.23L26.29,17.06L31.55,19.02L57.83,29.08L63.09,31.13L78.86,37.03L84.12,39.26L120.92,54.14L126.18,56.16L147.21,65.05L152.47,67.77L178.76,89.06L184.01,93.58L215.56,122.04L220.82,126.87L247.1,150.17L252.36,154.57L278.65,175.37L283.91,179.33L320.71,205.74L325.97,209.38L383.8,248.35L389.06,251.83L509.98,330.86L515.24,334.28L541.53,351.36" style="vector-effect: non-scaling-stroke; fill: none; stroke: rgb(70, 130, 180); stroke-opacity: 1; stroke-width: 1px; opacity: 1;"/></g><g class="points"/><g class="text"/></g><g class="trace scatter trace8eb4cc" style="stroke-miterlimit: 2; opacity: 1;"><g class="fills"/><g class="errorbars"/><g class="lines"><path class="js-line" d="M15.77,10.23L26.29,17.06L31.55,19.02L57.83,29.08L63.09,31.13L78.86,37.03L84.12,39.26L120.92,54.14L126.18,56.16L157.73,69.72L162.98,72.36L173.5,77.21L178.76,80.53L205.04,103.92L210.3,108.82L268.13,163.1L273.39,167.6L299.68,188.7L304.94,192.69L336.48,215.57L341.74,219.26L394.31,254.97L399.57,258.47L504.72,327.4L509.98,330.82L541.53,351.34" style="vector-effect: non-scaling-stroke; fill: none; stroke: rgb(70, 130, 180); stroke-opacity: 1; stroke-width: 1px; opacity: 1;"/></g><g class="points"/><g class="text"/></g><g class="trace scatter trace6aff54" style="stroke-miterlimit: 2; opacity: 1;"><g class="fills"/><g class="errorbars"/><g class="lines"><path class="js-line" d="M15.77,10.23L26.29,17.06L31.55,19.02L57.83,29.08L63.09,31.13L78.86,37.03L84.12,39.26L120.92,54.14L126.18,56.16L157.73,69.72L162.98,72.36L178.76,79.94L184.01,82.41L199.79,90.91L205.04,95.4L236.59,125.75L241.85,130.99L278.65,166.99L283.91,171.78L304.94,189.76L310.19,193.99L336.48,214.05L341.74,217.89L383.8,247.36L389.06,250.93L457.41,296.4L462.66,299.85L541.53,351.31" style="vector-effect: non-scaling-stroke; fill: none; stroke: rgb(70, 130, 180); stroke-opacity: 1; stroke-width: 1px; opacity: 1;"/></g><g class="points"/><g class="text"/></g><g class="trace scatter trace9c7855" style="stroke-miterlimit: 2; opacity: 1;"><g class="fills"/><g class="errorbars"/><g class="lines"><path class="js-line" d="M15.77,10.23L26.29,17.06L31.55,19.02L57.83,29.08L63.09,31.13L78.86,37.03L84.12,39.26L120.92,54.14L126.18,56.16L157.73,69.72L162.98,72.36L178.76,79.94L184.01,82.41L220.82,102.63L226.07,106.87L262.88,143.91L268.13,149.31L299.68,180.51L304.94,185.33L325.97,203.37L331.22,207.61L357.51,227.69L362.77,231.53L404.83,261L410.09,264.58L483.69,313.49L488.95,316.94L541.53,351.27" style="vector-effect: non-scaling-stroke; fill: none; stroke: rgb(70, 130, 180); stroke-opacity: 1; stroke-width: 1px; opacity: 1;"/></g><g class="points"/><g class="text"/></g><g class="trace scatter trace0d056e" style="stroke-miterlimit: 2; opacity: 1;"><g class="fills"/><g class="errorbars"/><g class="lines"><path class="js-line" d="M15.77,10.23L26.29,17.06L31.55,19.02L57.83,29.08L63.09,31.13L78.86,37.03L84.12,39.26L120.92,54.14L126.18,56.16L157.73,69.72L162.98,72.36L178.76,79.94L184.01,82.41L226.07,105.76L231.33,108.96L241.85,115.24L247.1,119.27L320.71,194.19L325.97,199.01L347,217.05L352.25,221.3L378.54,241.36L383.8,245.2L425.86,274.66L431.12,278.23L504.72,327.14L509.98,330.59L541.53,351.21" style="vector-effect: non-scaling-stroke; fill: none; stroke: rgb(70, 130, 180); stroke-opacity: 1; stroke-width: 1px; opacity: 1;"/></g><g class="points"/><g class="text"/></g><g class="trace scatter traceffc4fc" style="stroke-miterlimit: 2; opacity: 1;"><g class="fills"/><g class="errorbars"/><g class="lines"><path class="js-line" d="M15.77,10.23L26.29,17.06L31.55,19.02L57.83,29.08L63.09,31.13L78.86,37.03L84.12,39.26L120.92,54.14L126.18,56.16L157.73,69.72L162.98,72.36L178.76,79.94L184.01,82.41L226.07,105.76L231.33,108.96L262.88,127.73L268.13,132.32L336.48,203.07L341.74,208.02L362.77,226.5L368.03,230.83L394.31,251.2L399.57,255.08L436.38,281.13L441.63,284.74L504.72,326.97L509.98,330.43L541.53,351.12" style="vector-effect: non-scaling-stroke; fill: none; stroke: rgb(70, 130, 180); stroke-opacity: 1; stroke-width: 1px; opacity: 1;"/></g><g class="points"/><g class="text"/></g><g class="trace scatter trace428d4b" style="stroke-miterlimit: 2; opacity: 1;"><g class="fills"/><g class="errorbars"/><g class="lines"><path class="js-line" d="M15.77,10.23L26.29,17.06L31.55,19.02L57.83,29.08L63.09,31.13L78.86,37.03L84.12,39.26L120.92,54.14L126.18,56.16L157.73,69.72L162.98,72.36L178.76,79.94L184.01,82.41L226.07,105.76L231.33,108.96L262.88,127.73L268.13,131.3L283.91,141.12L289.16,145.79L352.25,211.91L357.51,216.99L378.54,235.91L383.8,240.32L410.09,261.01L415.35,264.93L452.15,291.19L457.41,294.81L515.24,333.68L520.5,337.16L541.53,351" style="vector-effect: non-scaling-stroke; fill: none; stroke: rgb(70, 130, 180); stroke-opacity: 1; stroke-width: 1px; opacity: 1;"/></g><g class="points"/><g class="text"/></g><g class="trace scatter tracec15cad" style="stroke-miterlimit: 2; opacity: 1;"><g class="fills"/><g class="errorbars"/><g class="lines"><path class="js-line" d="M15.77,10.23L26.29,17.06L31.55,19.02L57.83,29.08L63.09,31.13L78.86,37.03L84.12,39.26L120.92,54.14L126.18,56.16L157.73,69.72L162.98,72.36L178.76,79.94L184.01,82.41L226.07,105.76L231.33,108.96L262.88,127.73L268.13,131.3L289.16,144.09L294.42,147.5L304.94,154.12L310.19,159.54L373.28,225.95L378.54,231L399.57,249.81L404.83,254.2L431.12,274.79L436.38,278.7L473.18,304.89L478.44,308.51L536.27,347.34L541.53,350.82" style="vector-effect: non-scaling-stroke; fill: none; stroke: rgb(70, 130, 180); stroke-opacity: 1; stroke-width: 1px; opacity: 1;"/></g><g class="points"/><g class="text"/></g><g class="trace scatter trace6b2e90" style="stroke-miterlimit: 2; opacity: 1;"><g class="fills"/><g class="errorbars"/><g class="lines"><path class="js-line" d="M15.77,10.23L26.29,17.06L31.55,19.02L57.83,29.08L63.09,31.13L78.86,37.03L84.12,39.26L120.92,54.14L126.18,56.16L157.73,69.72L162.98,72.36L178.76,79.94L184.01,82.41L226.07,105.76L231.33,108.96L262.88,127.73L268.13,131.3L289.16,144.09L294.42,147.5L325.97,167.84L331.22,173.47L389.06,234.88L394.31,240.04L415.35,259.26L420.6,263.73L446.89,284.63L452.15,288.58L488.95,314.96L494.21,318.6L541.53,350.56" style="vector-effect: non-scaling-stroke; fill: none; stroke: rgb(70, 130, 180); stroke-opacity: 1; stroke-width: 1px; opacity: 1;"/></g><g class="points"/><g class="text"/></g><g class="trace scatter trace4cfa06" style="stroke-miterlimit: 2; opacity: 1;"><g class="fills"/><g class="errorbars"/><g class="lines"><path class="js-line" d="M15.77,10.23L26.29,17.06L31.55,19.02L57.83,29.08L63.09,31.13L78.86,37.03L84.12,39.26L120.92,54.14L126.18,56.16L157.73,69.72L162.98,72.36L178.76,79.94L184.01,82.41L226.07,105.76L231.33,108.96L262.88,127.73L268.13,131.3L289.16,144.09L294.42,147.5L341.74,177.51L347,181.89L410.09,249.04L415.35,254.17L436.38,273.23L441.63,277.67L467.92,298.44L473.18,302.37L509.98,328.67L515.24,332.31L541.53,350.17" style="vector-effect: non-scaling-stroke; fill: none; stroke: rgb(70, 130, 180); stroke-opacity: 1; stroke-width: 1px; opacity: 1;"/></g><g class="points"/><g class="text"/></g><g class="trace scatter tracebb052f" style="stroke-miterlimit: 2; opacity: 1;"><g class="fills"/><g class="errorbars"/><g class="lines"><path class="js-line" d="M15.77,10.23L26.29,17.06L31.55,19.02L57.83,29.08L63.09,31.13L78.86,37.03L84.12,39.26L120.92,54.14L126.18,56.16L157.73,69.72L162.98,72.36L178.76,79.94L184.01,82.41L226.07,105.76L231.33,108.96L262.88,127.73L268.13,131.3L289.16,144.09L294.42,147.5L362.77,191.32L368.03,196.07L425.86,257.93L431.12,263.16L452.15,282.63L457.41,287.16L478.44,304.2L483.69,308.25L515.24,331.35L520.5,335.05L541.53,349.61" style="vector-effect: non-scaling-stroke; fill: none; stroke: rgb(70, 130, 180); stroke-opacity: 1; stroke-width: 1px; opacity: 1;"/></g><g class="points"/><g class="text"/></g><g class="trace scatter tracee8726d" style="stroke-miterlimit: 2; opacity: 1;"><g class="fills"/><g class="errorbars"/><g class="lines"><path class="js-line" d="M15.77,10.23L26.29,17.06L31.55,19.02L57.83,29.08L63.09,31.13L78.86,37.03L84.12,39.26L120.92,54.14L126.18,56.16L157.73,69.72L162.98,72.36L178.76,79.94L184.01,82.41L226.07,105.76L231.33,108.96L262.88,127.73L268.13,131.3L289.16,144.09L294.42,147.5L373.28,198.1L378.54,201.74L383.8,205.23L389.06,210.33L446.89,272.02L452.15,277.21L473.18,296.54L478.44,301.04L504.72,322.03L509.98,325.99L541.53,348.76" style="vector-effect: non-scaling-stroke; fill: none; stroke: rgb(70, 130, 180); stroke-opacity: 1; stroke-width: 1px; opacity: 1;"/></g><g class="points"/><g class="text"/></g><g class="trace scatter tracea7b0fe" style="stroke-miterlimit: 2; opacity: 1;"><g class="fills"/><g class="errorbars"/><g class="lines"><path class="js-line" d="M15.77,10.23L26.29,17.06L31.55,19.02L57.83,29.08L63.09,31.13L78.86,37.03L84.12,39.26L120.92,54.14L126.18,56.16L157.73,69.72L162.98,72.36L178.76,79.94L184.01,82.41L226.07,105.76L231.33,108.96L262.88,127.73L268.13,131.3L289.16,144.09L294.42,147.5L373.28,198.1L378.54,201.74L404.83,218.9L410.09,224.6L467.92,286.11L473.18,291.27L494.21,310.47L499.47,314.94L525.75,335.82L531.01,339.77L541.53,347.51" style="vector-effect: non-scaling-stroke; fill: none; stroke: rgb(70, 130, 180); stroke-opacity: 1; stroke-width: 1px; opacity: 1;"/></g><g class="points"/><g class="text"/></g><g class="trace scatter trace1d4113" style="stroke-miterlimit: 2; opacity: 1;"><g class="fills"/><g class="errorbars"/><g class="lines"><path class="js-line" d="M15.77,10.23L26.29,17.06L31.55,19.02L57.83,29.08L63.09,31.13L78.86,37.03L84.12,39.26L120.92,54.14L126.18,56.16L157.73,69.72L162.98,72.36L178.76,79.94L184.01,82.41L226.07,105.76L231.33,108.96L262.88,127.73L268.13,131.3L289.16,144.09L294.42,147.5L373.28,198.1L378.54,201.74L399.57,214.83L404.83,216.18L410.09,216.16L415.35,221.76L488.95,301.05L494.21,306.16L515.24,325.02L520.5,329.4L541.53,345.98" style="vector-effect: non-scaling-stroke; fill: none; stroke: rgb(70, 130, 180); stroke-opacity: 1; stroke-width: 1px; opacity: 1;"/></g><g class="points"/><g class="text"/></g><g class="trace scatter trace3e7bd8" style="stroke-miterlimit: 2; opacity: 1;"><g class="fills"/><g class="errorbars"/><g class="lines"><path class="js-line" d="M15.77,10.23L26.29,17.06L31.55,19.02L57.83,29.08L63.09,31.13L78.86,37.03L84.12,39.26L120.92,54.14L126.18,56.16L157.73,69.72L162.98,72.36L178.76,79.94L184.01,82.41L226.07,105.76L231.33,108.96L262.88,127.73L268.13,131.3L289.16,144.09L294.42,147.5L368.03,194.71L373.28,197.16L394.31,205.46L399.57,207.06L410.09,207.71L415.35,213.24L457.41,259.8L462.66,266.06L488.95,296.87L494.21,302.5L509.98,318.05L515.24,322.85L536.27,340.64L541.53,344.81" style="vector-effect: non-scaling-stroke; fill: none; stroke: rgb(70, 130, 180); stroke-opacity: 1; stroke-width: 1px; opacity: 1;"/></g><g class="points"/><g class="text"/></g><g class="trace scatter trace031309" style="stroke-miterlimit: 2; opacity: 1;"><g class="fills"/><g class="errorbars"/><g class="lines"><path class="js-line" d="M15.77,10.23L26.29,17.06L31.55,19.02L57.83,29.08L63.09,31.13L78.86,37.03L84.12,39.26L120.92,54.14L126.18,56.16L157.73,69.72L162.98,72.36L178.76,79.94L184.01,82.41L226.07,105.76L231.33,108.96L262.88,127.73L268.13,131.3L289.16,144.09L294.42,147.5L331.22,170.23L336.48,172.38L368.03,186.6L373.28,188.63L394.31,196.93L399.57,198.54L410.09,199.19L415.35,204.72L441.63,234.03L446.89,240.33L467.92,267.67L473.18,274.67L488.95,294.41L494.21,300.4L509.98,316.72L515.24,321.69L536.27,339.95L541.53,344.2" style="vector-effect: non-scaling-stroke; fill: none; stroke: rgb(70, 130, 180); stroke-opacity: 1; stroke-width: 1px; opacity: 1;"/></g><g class="points"/><g class="text"/></g><g class="trace scatter trace0ce627" style="stroke-miterlimit: 2; opacity: 1;"><g class="fills"/><g class="errorbars"/><g class="lines"><path class="js-line" d="M15.77,10.23L26.29,17.06L31.55,19.02L57.83,29.08L63.09,31.13L78.86,37.03L84.12,39.26L120.92,54.14L126.18,56.16L157.73,69.72L162.98,72.36L178.76,79.94L184.01,82.41L226.07,105.76L231.33,108.96L262.88,127.73L268.13,131.3L283.91,141.12L289.16,142.98L368.03,178.1L373.28,180.13L394.31,188.52L399.57,190.16L410.09,190.82L415.35,196.51L436.38,221.39L441.63,228.14L457.41,249.91L462.66,257.52L483.69,286.7L488.95,293.23L504.72,310.82L509.98,316.11L525.75,330.71L531.01,335.24L541.53,343.93" style="vector-effect: non-scaling-stroke; fill: none; stroke: rgb(70, 130, 180); stroke-opacity: 1; stroke-width: 1px; opacity: 1;"/></g><g class="points"/><g class="text"/></g><g class="trace scatter trace7d0cca" style="stroke-miterlimit: 2; opacity: 1;"><g class="fills"/><g class="errorbars"/><g class="lines"><path class="js-line" d="M15.77,10.23L26.29,17.06L31.55,19.02L57.83,29.08L63.09,31.13L78.86,37.03L84.12,39.26L120.92,54.14L126.18,56.16L157.73,69.72L162.98,72.36L178.76,79.94L184.01,82.41L226.07,105.76L231.33,108.96L241.85,114.9L247.1,116.71L336.48,155.37L341.74,157.89L394.31,180.9L399.57,182.66L410.09,183.37L415.35,189.56L431.12,209.96L436.38,217.19L457.41,248L462.66,255.99L478.44,279.01L483.69,286.05L499.47,304.89L504.72,310.5L520.5,325.82L525.75,330.53L541.53,343.81" style="vector-effect: non-scaling-stroke; fill: none; stroke: rgb(70, 130, 180); stroke-opacity: 1; stroke-width: 1px; opacity: 1;"/></g><g class="points"/><g class="text"/></g><g class="trace scatter tracea25f90" style="stroke-miterlimit: 2; opacity: 1;"><g class="fills"/><g class="errorbars"/><g class="lines"><path class="js-line" d="M15.77,10.23L26.29,17.06L31.55,19.02L57.83,29.08L63.09,31.13L78.86,37.03L84.12,39.26L120.92,54.14L126.18,56.16L157.73,69.72L162.98,72.36L178.76,79.94L184.01,82.41L205.04,93.61L210.3,95.35L257.62,112.51L262.88,114.6L283.91,124.07L289.16,125.94L352.25,154.9L357.51,157.75L373.28,164.94L378.54,167.59L399.57,176.71L404.83,177.53L410.09,177.51L415.35,184.42L436.38,214.7L441.63,222.61L478.44,278.6L483.69,285.72L499.47,304.7L504.72,310.34L520.5,325.72L525.75,330.44L541.53,343.75" style="vector-effect: non-scaling-stroke; fill: none; stroke: rgb(70, 130, 180); stroke-opacity: 1; stroke-width: 1px; opacity: 1;"/></g><g class="points"/><g class="text"/></g><g class="trace scatter trace07e2d0" style="stroke-miterlimit: 2; opacity: 1;"><g class="fills"/><g class="errorbars"/><g class="lines"><path class="js-line" d="M15.77,10.23L26.29,17.06L31.55,19.02L57.83,29.08L63.09,31.13L78.86,37.03L84.12,39.26L120.92,54.14L126.18,56.16L157.73,69.72L162.98,72.36L178.76,79.94L184.01,82.41L189.27,85.3L194.53,85.89L205.04,85.84L210.3,86.82L257.62,103.98L262.88,106.07L283.91,115.56L289.16,117.44L341.74,142.03L347,144.59L378.54,161.52L383.8,164.07L394.31,169.53L399.57,171.72L404.83,172.63L410.09,172.61L425.86,196.49L431.12,204.69L478.44,278.33L483.69,285.5L499.47,304.58L504.72,310.24L520.5,325.65L525.75,330.38L541.53,343.71" style="vector-effect: non-scaling-stroke; fill: none; stroke: rgb(70, 130, 180); stroke-opacity: 1; stroke-width: 1px; opacity: 1;"/></g><g class="points"/><g class="text"/></g><g class="trace scatter trace668955" style="stroke-miterlimit: 2; opacity: 1;"><g class="fills"/><g class="errorbars"/><g class="lines"><path class="js-line" d="M15.77,10.23L26.29,17.06L31.55,19.02L57.83,29.08L63.09,31.13L78.86,37.03L84.12,39.26L120.92,54.14L126.18,56.16L157.73,69.72L162.98,72.36L178.76,79.94L184.01,82.41L189.27,85.3L194.53,85.89L210.3,86.06L215.56,86.59L226.07,87.26L231.33,87.72L241.85,89.49L247.1,91.12L320.71,123.2L325.97,126.25L341.74,133.96L347,136.66L394.31,163.97L399.57,166.42L404.83,167.44L410.09,167.42L473.18,270.44L478.44,278.08L488.95,292.08L494.21,298.45L509.98,315.52L515.24,320.66L536.27,339.35L541.53,343.67" style="vector-effect: non-scaling-stroke; fill: none; stroke: rgb(70, 130, 180); stroke-opacity: 1; stroke-width: 1px; opacity: 1;"/></g><g class="points"/><g class="text"/></g><g class="trace scatter tracef571e9" style="stroke-miterlimit: 2; opacity: 1;"><g class="fills"/><g class="errorbars"/><g class="lines"><path class="js-line" d="M15.77,10.23L26.29,17.06L31.55,19.02L57.83,29.08L63.09,31.13L78.86,37.03L84.12,39.26L120.92,54.14L126.18,56.16L157.73,69.72L162.98,72.36L178.76,79.94L184.01,82.41L189.27,85.3L194.53,85.89L210.3,86.06L215.56,86.59L226.07,87.26L231.33,87.72L252.36,91.69L257.62,92.98L294.42,102.82L299.68,105.19L315.45,112.33L320.71,114.68L331.22,120.12L336.48,122.57L362.77,137.53L368.03,140.86L383.8,150.31L389.06,154.12L399.57,159.59L404.83,160.71L410.09,160.68L415.35,170.17L436.38,208.83L441.63,218L467.92,261.91L473.18,270.03L488.95,291.86L494.21,298.27L509.98,315.41L515.24,320.57L531.01,334.84L536.27,339.29L541.53,343.62" style="vector-effect: non-scaling-stroke; fill: none; stroke: rgb(70, 130, 180); stroke-opacity: 1; stroke-width: 1px; opacity: 1;"/></g><g class="points"/><g class="text"/></g><g class="trace scatter trace0bc2ed" style="stroke-miterlimit: 2; opacity: 1;"><g class="fills"/><g class="errorbars"/><g class="lines"><path class="js-line" d="M15.77,10.23L26.29,17.06L31.55,19.02L57.83,29.08L63.09,31.13L78.86,37.03L84.12,39.26L120.92,54.14L126.18,56.16L157.73,69.72L162.98,72.36L178.76,79.94L184.01,82.41L189.27,85.3L194.53,85.89L210.3,86.06L215.56,86.59L226.07,87.26L231.33,87.72L252.36,91.69L257.62,92.98L304.94,105.79L310.19,107.63L352.25,123.29L357.51,126.27L373.28,135.32L378.54,138.8L399.57,151.31L404.83,152.47L410.09,152.44L415.35,162.33L441.63,214.81L446.89,224.56L467.92,261.01L473.18,269.32L483.69,284.57L488.95,291.49L504.72,309.79L509.98,315.23L525.75,330.14L531.01,334.74L541.53,343.54" style="vector-effect: non-scaling-stroke; fill: none; stroke: rgb(70, 130, 180); stroke-opacity: 1; stroke-width: 1px; opacity: 1;"/></g><g class="points"/><g class="text"/></g><g class="trace scatter tracedc1eb9" style="stroke-miterlimit: 2; opacity: 1;"><g class="fills"/><g class="errorbars"/><g class="lines"><path class="js-line" d="M15.77,10.23L26.29,17.06L31.55,19.02L57.83,29.08L63.09,31.13L78.86,37.03L84.12,39.26L120.92,54.14L126.18,56.16L157.73,69.72L162.98,72.36L178.76,79.94L184.01,82.41L189.27,85.3L194.53,85.89L210.3,86.06L215.56,86.59L226.07,87.26L231.33,87.72L252.36,91.69L257.62,92.98L304.94,105.79L310.19,107.63L352.25,123.29L357.51,125.93L368.03,130.39L373.28,132.76L394.31,142.67L399.57,144.66L404.83,145.48L410.09,145.44L415.35,153.82L420.6,164.5L457.41,240.2L462.66,249.9L473.18,267.85L478.44,276.01L488.95,290.72L494.21,297.33L509.98,314.85L515.24,320.08L531.01,334.52L536.27,339.01L541.53,343.38" style="vector-effect: non-scaling-stroke; fill: none; stroke: rgb(70, 130, 180); stroke-opacity: 1; stroke-width: 1px; opacity: 1;"/></g><g class="points"/><g class="text"/></g><g class="trace scatter traceda0ebc" style="stroke-miterlimit: 2; opacity: 1;"><g class="fills"/><g class="errorbars"/><g class="lines"><path class="js-line" d="M15.77,10.23L26.29,17.06L31.55,19.02L57.83,29.08L63.09,31.13L78.86,37.03L84.12,39.26L120.92,54.14L126.18,56.16L157.73,69.72L162.98,72.36L178.76,79.94L184.01,82.41L189.27,85.3L194.53,85.89L210.3,86.06L215.56,86.59L226.07,87.26L231.33,87.72L252.36,91.69L257.62,92.98L304.94,105.79L310.19,107.63L352.25,123.29L357.51,125.93L368.03,130.39L373.28,132.76L394.31,142.67L399.57,144.66L404.83,145.48L410.09,145.44L420.6,161L425.86,169.5L431.12,178.06L436.38,189.24L467.92,255.05L473.18,264.59L483.69,281.53L488.95,289.01L499.47,302.35L504.72,308.35L520.5,324.46L525.75,329.35L541.53,343.01" style="vector-effect: non-scaling-stroke; fill: none; stroke: rgb(70, 130, 180); stroke-opacity: 1; stroke-width: 1px; opacity: 1;"/></g><g class="points"/><g class="text"/></g><g class="trace scatter trace134175" style="stroke-miterlimit: 2; opacity: 1;"><g class="fills"/><g class="errorbars"/><g class="lines"><path class="js-line" d="M15.77,10.23L26.29,17.06L31.55,19.02L57.83,29.08L63.09,31.13L78.86,37.03L84.12,39.26L120.92,54.14L126.18,56.16L157.73,69.72L162.98,72.36L178.76,79.94L184.01,82.41L189.27,85.3L194.53,85.89L210.3,86.06L215.56,86.59L226.07,87.26L231.33,87.72L252.36,91.69L257.62,92.98L304.94,105.79L310.19,107.63L352.25,123.29L357.51,125.93L368.03,130.39L373.28,132.76L394.31,142.67L399.57,144.66L404.83,145.48L410.09,145.44L420.6,161L425.86,169.5L446.89,203.2L452.15,214.49L473.18,258.47L478.44,268.28L488.95,285.52L494.21,293.03L504.72,306.32L509.98,312.28L525.75,328.25L531.01,333.1L541.53,342.28" style="vector-effect: non-scaling-stroke; fill: none; stroke: rgb(70, 130, 180); stroke-opacity: 1; stroke-width: 1px; opacity: 1;"/></g><g class="points"/><g class="text"/></g><g class="trace scatter trace5ad5a6" style="stroke-miterlimit: 2; opacity: 1;"><g class="fills"/><g class="errorbars"/><g class="lines"><path class="js-line" d="M15.77,10.23L26.29,17.06L31.55,19.02L57.83,29.08L63.09,31.13L78.86,37.03L84.12,39.26L120.92,54.14L126.18,56.16L157.73,69.72L162.98,72.36L178.76,79.94L184.01,82.41L189.27,85.3L194.53,85.89L210.3,86.06L215.56,86.59L226.07,87.26L231.33,87.72L252.36,91.69L257.62,92.98L304.94,105.79L310.19,107.63L352.25,123.29L357.51,125.93L368.03,130.39L373.28,132.76L394.31,142.67L399.57,144.66L404.83,145.48L410.09,145.44L420.6,161L425.86,169.5L446.89,201.15L452.15,207.41L462.66,228.49L467.92,239.59L483.69,270.76L488.95,279.92L499.47,295.95L504.72,302.96L515.24,315.45L520.5,321.1L536.27,336.4L541.53,341.08" style="vector-effect: non-scaling-stroke; fill: none; stroke: rgb(70, 130, 180); stroke-opacity: 1; stroke-width: 1px; opacity: 1;"/></g><g class="points"/><g class="text"/></g><g class="trace scatter tracecfffb1" style="stroke-miterlimit: 2; opacity: 1;"><g class="fills"/><g class="errorbars"/><g class="lines"><path class="js-line" d="M15.77,10.23L26.29,17.06L31.55,19.02L57.83,29.08L63.09,31.13L78.86,37.03L84.12,39.26L120.92,54.14L126.18,56.16L157.73,69.72L162.98,72.36L178.76,79.94L184.01,82.41L189.27,85.3L194.53,85.89L210.3,86.06L215.56,86.59L226.07,87.26L231.33,87.72L252.36,91.69L257.62,92.98L304.94,105.79L310.19,107.63L352.25,123.29L357.51,125.93L368.03,130.39L373.28,132.76L394.31,142.67L399.57,144.66L404.83,145.48L410.09,145.44L420.6,161L425.86,169.5L446.89,201.15L452.15,207.41L457.41,209.66L462.66,219.97L483.69,263.05L488.95,272.99L499.47,290.84L504.72,298.65L515.24,312.37L520.5,318.47L536.27,334.7L541.53,339.61" style="vector-effect: non-scaling-stroke; fill: none; stroke: rgb(70, 130, 180); stroke-opacity: 1; stroke-width: 1px; opacity: 1;"/></g><g class="points"/><g class="text"/></g><g class="trace scatter traceed4ce5" style="stroke-miterlimit: 2; opacity: 1;"><g class="fills"/><g class="errorbars"/><g class="lines"><path class="js-line" d="M15.77,10.23L26.29,17.06L31.55,19.02L57.83,29.08L63.09,31.13L78.86,37.03L84.12,39.26L120.92,54.14L126.18,56.16L157.73,69.72L162.98,72.36L178.76,79.94L184.01,82.41L189.27,85.3L194.53,85.89L210.3,86.06L215.56,86.59L226.07,87.26L231.33,87.72L252.36,91.69L257.62,92.98L304.94,105.79L310.19,107.63L352.25,123.29L357.51,125.93L368.03,130.39L373.28,132.76L394.31,142.67L399.57,144.66L404.83,145.48L410.09,145.44L420.6,161L425.86,169.5L441.63,193.65L446.89,199.62L452.15,201.36L457.41,201.56L467.92,222.55L473.18,233.49L494.21,276.18L499.47,285.73L509.98,302.29L515.24,309.44L525.75,322.1L531.01,327.8L541.53,338.28" style="vector-effect: non-scaling-stroke; fill: none; stroke: rgb(70, 130, 180); stroke-opacity: 1; stroke-width: 1px; opacity: 1;"/></g><g class="points"/><g class="text"/></g><g class="trace scatter trace99ce47" style="stroke-miterlimit: 2; opacity: 1;"><g class="fills"/><g class="errorbars"/><g class="lines"><path class="js-line" d="M15.77,10.23L26.29,17.06L31.55,19.02L57.83,29.08L63.09,31.13L78.86,37.03L84.12,39.26L120.92,54.14L126.18,56.16L157.73,69.72L162.98,72.36L178.76,79.94L184.01,82.41L189.27,85.3L194.53,85.89L210.3,86.06L215.56,86.59L226.07,87.26L231.33,87.72L252.36,91.69L257.62,92.98L304.94,105.79L310.19,107.63L352.25,123.29L357.51,125.93L368.03,130.39L373.28,132.76L394.31,142.67L399.57,144.66L404.83,145.48L410.09,145.44L420.6,161L425.86,169.5L431.12,177.72L436.38,183.02L446.89,191.09L452.15,192.83L457.41,193.03L462.66,202.91L499.47,281.78L504.72,291.29L515.24,307.4L520.5,314.32L531.01,326.6L536.27,332.15L541.53,337.4" style="vector-effect: non-scaling-stroke; fill: none; stroke: rgb(70, 130, 180); stroke-opacity: 1; stroke-width: 1px; opacity: 1;"/></g><g class="points"/><g class="text"/></g><g class="trace scatter trace677e0e" style="stroke-miterlimit: 2; opacity: 1;"><g class="fills"/><g class="errorbars"/><g class="lines"><path class="js-line" d="M15.77,10.23L26.29,17.06L31.55,19.02L57.83,29.08L63.09,31.13L78.86,37.03L84.12,39.26L120.92,54.14L126.18,56.16L157.73,69.72L162.98,72.36L178.76,79.94L184.01,82.41L189.27,85.3L194.53,85.89L210.3,86.06L215.56,86.59L226.07,87.26L231.33,87.72L252.36,91.69L257.62,92.98L304.94,105.79L310.19,107.63L352.25,123.29L357.51,125.93L368.03,130.39L373.28,132.76L394.31,142.67L399.57,144.66L404.83,145.48L410.09,145.44L415.35,152.63L420.6,158.19L436.38,174.49L441.63,178.89L446.89,182.57L452.15,184.31L457.41,184.51L462.66,194.44L478.44,229.52L483.69,242.37L494.21,268.09L499.47,279.48L509.98,298.41L515.24,306.31L525.75,319.95L531.01,325.98L541.53,336.95" style="vector-effect: non-scaling-stroke; fill: none; stroke: rgb(70, 130, 180); stroke-opacity: 1; stroke-width: 1px; opacity: 1;"/></g><g class="points"/><g class="text"/></g><g class="trace scatter trace724f09" style="stroke-miterlimit: 2; opacity: 1;"><g class="fills"/><g class="errorbars"/><g class="lines"><path class="js-line" d="M15.77,10.23L26.29,17.06L31.55,19.02L57.83,29.08L63.09,31.13L78.86,37.03L84.12,39.26L120.92,54.14L126.18,56.16L157.73,69.72L162.98,72.36L178.76,79.94L184.01,82.41L189.27,85.3L194.53,85.89L210.3,86.06L215.56,86.59L226.07,87.26L231.33,87.72L252.36,91.69L257.62,92.98L304.94,105.79L310.19,107.63L373.28,129.95L378.54,131.46L399.57,138.09L404.83,138.57L410.09,138.54L415.35,144.1L436.38,166.02L441.63,170.48L446.89,174.22L452.15,176L457.41,176.22L462.66,186.55L473.18,211.55L478.44,225.07L494.21,266.56L499.47,278.39L509.98,297.79L515.24,305.81L525.75,319.62L531.01,325.7L541.53,336.75" style="vector-effect: non-scaling-stroke; fill: none; stroke: rgb(70, 130, 180); stroke-opacity: 1; stroke-width: 1px; opacity: 1;"/></g><g class="points"/><g class="text"/></g><g class="trace scatter trace0ec597" style="stroke-miterlimit: 2; opacity: 1;"><g class="fills"/><g class="errorbars"/><g class="lines"><path class="js-line" d="M15.77,10.23L26.29,17.06L31.55,19.02L57.83,29.08L63.09,31.13L78.86,37.03L84.12,39.26L120.92,54.14L126.18,56.16L157.73,69.72L162.98,72.36L178.76,79.94L184.01,82.41L189.27,85.3L194.53,85.89L210.3,86.06L215.56,86.59L226.07,87.26L231.33,87.72L252.36,91.69L257.62,92.98L268.13,95.49L273.39,96.36L336.48,109.95L341.74,111.51L362.77,117.76L368.03,119.65L394.31,128.36L399.57,129.58L410.09,130.02L415.35,135.61L436.38,158.11L441.63,162.85L446.89,166.88L452.15,168.82L457.41,169.05L462.66,180.45L478.44,222.74L483.69,237.63L494.21,265.86L499.47,277.9L509.98,297.51L515.24,305.59L525.75,319.47L531.01,325.58L541.53,336.66" style="vector-effect: non-scaling-stroke; fill: none; stroke: rgb(70, 130, 180); stroke-opacity: 1; stroke-width: 1px; opacity: 1;"/></g><g class="points"/><g class="text"/></g><g class="trace scatter traced0a079" style="stroke-miterlimit: 2; opacity: 1;"><g class="fills"/><g class="errorbars"/><g class="lines"><path class="js-line" d="M15.77,10.23L26.29,17.06L31.55,19.02L57.83,29.08L63.09,31.13L78.86,37.03L84.12,39.26L120.92,54.14L126.18,56.16L157.73,69.72L162.98,72.36L168.24,74.65L173.5,75.84L189.27,80.27L194.53,80.69L220.82,81.14L226.07,81.63L241.85,83.18L247.1,83.7L262.88,86.12L268.13,86.96L294.42,91.99L299.68,93.25L320.71,97.62L325.97,99.15L341.74,102.99L347,104.44L383.8,116.09L389.06,118.46L399.57,121.2L404.83,121.69L410.09,121.66L415.35,127.4L441.63,156.86L446.89,161.36L452.15,163.52L457.41,163.78L462.66,176.44L467.92,191.26L494.21,265.53L499.47,277.66L509.98,297.38L515.24,305.49L525.75,319.4L531.01,325.52L541.53,336.61" style="vector-effect: non-scaling-stroke; fill: none; stroke: rgb(70, 130, 180); stroke-opacity: 1; stroke-width: 1px; opacity: 1;"/></g><g class="points"/><g class="text"/></g><g class="trace scatter traced6f379" style="stroke-miterlimit: 2; opacity: 1;"><g class="fills"/><g class="errorbars"/><g class="lines"><path class="js-line" d="M15.77,10.23L26.29,17.06L31.55,19.02L57.83,29.08L63.09,31.13L78.86,37.03L84.12,39.26L120.92,54.14L126.18,56.16L152.47,66.49L157.73,66.48L168.24,66.47L173.5,67.32L189.27,71.74L194.53,72.16L220.82,72.61L226.07,73.1L241.85,74.65L247.1,75.18L262.88,77.59L268.13,78.43L294.42,83.46L299.68,84.72L320.71,89.1L325.97,90.63L341.74,94.48L347,95.94L383.8,107.72L389.06,110.14L399.57,112.96L404.83,113.47L410.09,113.44L415.35,119.45L431.12,139.37L436.38,145.92L446.89,156.83L452.15,159.23L457.41,159.52L462.66,173.4L488.95,251.44L494.21,265.3L504.72,288.08L509.98,297.29L520.5,312.71L525.75,319.36L541.53,336.59" style="vector-effect: non-scaling-stroke; fill: none; stroke: rgb(70, 130, 180); stroke-opacity: 1; stroke-width: 1px; opacity: 1;"/></g><g class="points"/><g class="text"/></g><g class="trace scatter trace6583b8" style="stroke-miterlimit: 2; opacity: 1;"><g class="fills"/><g class="errorbars"/><g class="lines"><path class="js-line" d="M15.77,10.23L26.29,17.06L31.55,19.02L57.83,29.08L63.09,31.13L78.86,37.03L84.12,39.26L120.92,54.14L126.18,56.16L147.21,64.54L152.47,64.61L231.33,64.86L236.59,65.47L268.13,69.9L273.39,70.77L336.48,84.38L341.74,85.96L362.77,92.28L368.03,94.21L399.57,104.63L404.83,105.15L410.09,105.12L415.35,111.34L425.86,125.23L431.12,132.87L441.63,146.76L446.89,152.35L452.15,155.02L457.41,155.33L467.92,187.45L473.18,203.87L488.95,251.14L494.21,265.11L504.72,287.98L509.98,297.21L520.5,312.66L525.75,319.32L541.53,336.56" style="vector-effect: non-scaling-stroke; fill: none; stroke: rgb(70, 130, 180); stroke-opacity: 1; stroke-width: 1px; opacity: 1;"/></g><g class="points"/><g class="text"/></g><g class="trace scatter tracec425a8" style="stroke-miterlimit: 2; opacity: 1;"><g class="fills"/><g class="errorbars"/><g class="lines"><path class="js-line" d="M15.77,10.23L26.29,17.06L31.55,19.02L57.83,29.08L63.09,31.13L78.86,37.03L84.12,39.26L120.92,54.14L126.18,56.16L147.21,64.45L152.47,64.44L278.65,64.84L283.91,65.17L289.16,65.34L294.42,66.4L347,78.89L352.25,80.53L383.8,90.78L389.06,93.26L399.57,96.17L404.83,96.7L410.09,96.66L415.35,102.99L425.86,117.5L431.12,125.77L441.63,141.19L446.89,147.43L452.15,150.41L457.41,150.76L488.95,250.85L494.21,264.91L504.72,287.88L509.98,297.14L520.5,312.62L525.75,319.28L536.27,331.15L541.53,336.54" style="vector-effect: non-scaling-stroke; fill: none; stroke: rgb(70, 130, 180); stroke-opacity: 1; stroke-width: 1px; opacity: 1;"/></g><g class="points"/><g class="text"/></g><g class="trace scatter traceaa417f" style="stroke-miterlimit: 2; opacity: 1;"><g class="fills"/><g class="errorbars"/><g class="lines"><path class="js-line" d="M15.77,10.23L26.29,17.06L31.55,19.02L57.83,29.08L63.09,31.13L78.86,37.03L84.12,39.26L120.92,54.14L126.18,56.16L147.21,64.45L152.47,64.44L278.65,64.84L283.91,65.17L304.94,66.05L310.19,66.7L347,70.53L352.25,72.01L383.8,82.26L389.06,84.73L399.57,87.65L404.83,88.18L410.09,88.14L415.35,94.5L425.86,109.25L431.12,117.9L441.63,134.65L446.89,141.61L452.15,144.93L457.41,145.32L478.44,218.46L483.69,234.92L494.21,264.7L499.47,277.09L509.98,297.06L515.24,305.24L525.75,319.23L531.01,325.38L541.53,336.51" style="vector-effect: non-scaling-stroke; fill: none; stroke: rgb(70, 130, 180); stroke-opacity: 1; stroke-width: 1px; opacity: 1;"/></g><g class="points"/><g class="text"/></g><g class="trace scatter trace32753a" style="stroke-miterlimit: 2; opacity: 1;"><g class="fills"/><g class="errorbars"/><g class="lines"><path class="js-line" d="M15.77,10.23L26.29,17.06L31.55,19.02L57.83,29.08L63.09,31.13L78.86,37.03L84.12,39.26L120.92,54.14L126.18,56.16L147.21,64.45L152.47,64.44L278.65,64.84L283.91,65.17L304.94,66.05L310.19,66.7L352.25,71.49L357.51,72.37L368.03,74.34L373.28,75.32L399.57,80.49L404.83,80.84L410.09,80.81L415.35,85.97L425.86,100.75L431.12,109.48L441.63,126.82L446.89,134.27L452.15,137.89L457.41,138.32L473.18,199.61L478.44,217.38L488.95,250.12L494.21,264.43L504.72,287.63L509.98,296.95L520.5,312.5L525.75,319.18L536.27,331.08L541.53,336.48" style="vector-effect: non-scaling-stroke; fill: none; stroke: rgb(70, 130, 180); stroke-opacity: 1; stroke-width: 1px; opacity: 1;"/></g><g class="points"/><g class="text"/></g><g class="trace scatter trace9596b2" style="stroke-miterlimit: 2; opacity: 1;"><g class="fills"/><g class="errorbars"/><g class="lines"><path class="js-line" d="M15.77,10.23L26.29,17.06L31.55,19.02L57.83,29.08L63.09,31.13L78.86,37.03L84.12,39.26L120.92,54.14L126.18,56.16L147.21,64.45L152.47,64.44L278.65,64.84L283.91,65.17L304.94,66.05L310.19,66.7L352.25,71.49L357.51,72.37L368.03,74.34L373.28,75.32L399.57,80.49L404.83,80.84L410.09,80.81L415.35,84.69L425.86,94.19L431.12,100.95L441.63,118.34L446.89,125.91L452.15,129.61L457.41,130.05L473.18,196.81L478.44,215.7L488.95,249.47L494.21,264.01L504.72,287.42L509.98,296.79L520.5,312.39L525.75,319.09L536.27,331.02L541.53,336.43" style="vector-effect: non-scaling-stroke; fill: none; stroke: rgb(70, 130, 180); stroke-opacity: 1; stroke-width: 1px; opacity: 1;"/></g><g class="points"/><g class="text"/></g><g class="trace scatter tracea547a6" style="stroke-miterlimit: 2; opacity: 1;"><g class="fills"/><g class="errorbars"/><g class="lines"><path class="js-line" d="M15.77,10.23L26.29,17.06L31.55,19.02L57.83,29.08L63.09,31.13L78.86,37.03L84.12,39.26L120.92,54.14L126.18,56.16L147.21,64.45L152.47,64.44L278.65,64.84L283.91,65.17L304.94,66.05L310.19,66.7L352.25,71.49L357.51,72.37L368.03,74.34L373.28,75.32L399.57,80.49L404.83,80.84L410.09,80.81L415.35,84.69L425.86,94.19L431.12,99.85L446.89,117.64L452.15,121.09L457.41,121.53L462.66,143.57L473.18,192.06L478.44,212.79L488.95,248.38L494.21,263.29L504.72,287.06L509.98,296.51L520.5,312.22L525.75,318.95L536.27,330.92L541.53,336.34" style="vector-effect: non-scaling-stroke; fill: none; stroke: rgb(70, 130, 180); stroke-opacity: 1; stroke-width: 1px; opacity: 1;"/></g><g class="points"/><g class="text"/></g><g class="trace scatter trace5a6b1b" style="stroke-miterlimit: 2; opacity: 1;"><g class="fills"/><g class="errorbars"/><g class="lines"><path class="js-line" d="M15.77,10.23L26.29,17.06L31.55,19.02L57.83,29.08L63.09,31.13L78.86,37.03L84.12,39.26L120.92,54.14L126.18,56.16L147.21,64.45L152.47,64.44L278.65,64.84L283.91,65.17L304.94,66.05L310.19,66.7L352.25,71.49L357.51,72.37L368.03,74.34L373.28,75.32L399.57,80.49L404.83,80.84L410.09,80.81L415.35,84.69L425.86,94.19L431.12,99.85L446.89,117.64L452.15,119.98L457.41,120.25L462.66,135.98L478.44,207.55L483.69,228.17L494.21,261.97L499.47,275.2L509.98,296.02L515.24,304.42L525.75,318.69L531.01,324.93L541.53,336.19" style="vector-effect: non-scaling-stroke; fill: none; stroke: rgb(70, 130, 180); stroke-opacity: 1; stroke-width: 1px; opacity: 1;"/></g><g class="points"/><g class="text"/></g><g class="trace scatter tracec27268" style="stroke-miterlimit: 2; opacity: 1;"><g class="fills"/><g class="errorbars"/><g class="lines"><path class="js-line" d="M15.77,10.23L26.29,17.06L31.55,19.02L57.83,29.08L63.09,31.13L78.86,37.03L84.12,39.26L120.92,54.14L126.18,56.16L147.21,64.45L152.47,64.44L278.65,64.84L283.91,65.17L304.94,66.05L310.19,66.7L352.25,71.49L357.51,72.37L368.03,74.34L373.28,75.32L399.57,80.49L404.83,80.84L410.09,80.81L415.35,84.69L425.86,94.19L431.12,99.85L446.89,117.64L452.15,119.98L457.41,120.25L462.66,135.98L467.92,153.09L473.18,176.24L483.69,222.5L488.95,242.64L494.21,259.57L499.47,273.57L509.98,295.13L515.24,303.73L525.75,318.24L531.01,324.55L541.53,335.92" style="vector-effect: non-scaling-stroke; fill: none; stroke: rgb(70, 130, 180); stroke-opacity: 1; stroke-width: 1px; opacity: 1;"/></g><g class="points"/><g class="text"/></g><g class="trace scatter trace8fe462" style="stroke-miterlimit: 2; opacity: 1;"><g class="fills"/><g class="errorbars"/><g class="lines"><path class="js-line" d="M15.77,10.23L26.29,17.06L31.55,19.02L57.83,29.08L63.09,31.13L78.86,37.03L84.12,39.26L120.92,54.14L126.18,56.16L147.21,64.45L152.47,64.44L278.65,64.84L283.91,65.17L304.94,66.05L310.19,66.7L352.25,71.49L357.51,72.37L368.03,74.34L373.28,75.32L399.57,80.49L404.83,80.84L410.09,80.81L415.35,84.69L425.86,94.19L431.12,99.85L446.89,117.64L452.15,119.98L457.41,120.25L462.66,135.98L473.18,168.91L478.44,191.42L488.95,236.76L494.21,255.58L499.47,270.84L504.72,283.27L515.24,302.59L520.5,310.44L531.01,323.94L536.27,329.9L541.53,335.48" style="vector-effect: non-scaling-stroke; fill: none; stroke: rgb(70, 130, 180); stroke-opacity: 1; stroke-width: 1px; opacity: 1;"/></g><g class="points"/><g class="text"/></g><g class="trace scatter tracec5245c" style="stroke-miterlimit: 2; opacity: 1;"><g class="fills"/><g class="errorbars"/><g class="lines"><path class="js-line" d="M15.77,10.23L26.29,17.06L31.55,19.02L57.83,29.08L63.09,31.13L78.86,37.03L84.12,39.26L120.92,54.14L126.18,56.16L147.21,64.45L152.47,64.44L278.65,64.84L283.91,65.17L304.94,66.05L310.19,66.7L352.25,71.49L357.51,72.37L368.03,74.34L373.28,75.32L399.57,80.49L404.83,80.84L410.09,80.81L415.35,84.69L425.86,94.19L431.12,99.85L446.89,117.64L452.15,119.98L457.41,120.25L462.66,135.98L473.18,168.91L478.44,182.89L488.95,229.04L494.21,249.67L499.47,266.66L504.72,280.28L515.24,300.87L520.5,309.08L531.01,323.02L536.27,329.13L541.53,334.82" style="vector-effect: non-scaling-stroke; fill: none; stroke: rgb(70, 130, 180); stroke-opacity: 1; stroke-width: 1px; opacity: 1;"/></g><g class="points"/><g class="text"/></g><g class="trace scatter trace7f5bef" style="stroke-miterlimit: 2; opacity: 1;"><g class="fills"/><g class="errorbars"/><g class="lines"><path class="js-line" d="M15.77,10.23L26.29,17.06L31.55,19.02L57.83,29.08L63.09,31.13L78.86,37.03L84.12,39.26L120.92,54.14L126.18,56.16L147.21,64.45L152.47,64.44L278.65,64.84L283.91,65.17L304.94,66.05L310.19,66.7L352.25,71.49L357.51,72.37L368.03,74.34L373.28,75.32L399.57,80.49L404.83,80.84L410.09,80.81L415.35,84.69L425.86,94.19L431.12,99.85L446.89,117.64L452.15,119.98L457.41,120.25L462.66,135.98L473.18,168.91L478.44,182.04L483.69,197.75L488.95,220.66L499.47,261.15L504.72,276.3L509.98,288.5L515.24,298.62L525.75,314.96L531.01,321.84L541.53,333.99" style="vector-effect: non-scaling-stroke; fill: none; stroke: rgb(70, 130, 180); stroke-opacity: 1; stroke-width: 1px; opacity: 1;"/></g><g class="points"/><g class="text"/></g><g class="trace scatter trace9d6ee6" style="stroke-miterlimit: 2; opacity: 1;"><g class="fills"/><g class="errorbars"/><g class="lines"><path class="js-line" d="M15.77,10.23L26.29,17.06L31.55,19.02L57.83,29.08L63.09,31.13L78.86,37.03L84.12,39.26L120.92,54.14L126.18,56.16L147.21,64.45L152.47,64.44L278.65,64.84L283.91,65.17L304.94,66.05L310.19,66.7L352.25,71.49L357.51,72.37L368.03,74.34L373.28,75.32L399.57,80.49L404.83,80.84L410.09,80.81L415.35,84.69L425.86,94.19L431.12,99.85L446.89,117.64L452.15,119.98L457.41,120.25L462.66,135.98L473.18,168.91L478.44,182.04L483.69,189.22L488.95,212.16L499.47,254.82L504.72,271.73L509.98,285.18L515.24,296.12L525.75,313.4L531.01,320.57L541.53,333.1" style="vector-effect: non-scaling-stroke; fill: none; stroke: rgb(70, 130, 180); stroke-opacity: 1; stroke-width: 1px; opacity: 1;"/></g><g class="points"/><g class="text"/></g><g class="trace scatter trace139673" style="stroke-miterlimit: 2; opacity: 1;"><g class="fills"/><g class="errorbars"/><g class="lines"><path class="js-line" d="M15.77,10.23L26.29,17.06L31.55,19.02L57.83,29.08L63.09,31.13L78.86,37.03L84.12,39.26L120.92,54.14L126.18,56.16L147.21,64.45L152.47,64.44L278.65,64.84L283.91,65.17L304.94,66.05L310.19,66.7L352.25,71.49L357.51,72.37L368.03,74.34L373.28,75.32L399.57,80.49L404.83,80.84L410.09,80.81L415.35,84.69L425.86,94.19L431.12,99.85L446.89,117.64L452.15,119.98L457.41,120.25L462.66,135.98L473.18,168.91L478.44,176.33L483.69,180.69L488.95,203.65L499.47,248.37L504.72,267.25L509.98,282.03L515.24,293.82L525.75,312.01L531.01,319.44L541.53,332.32" style="vector-effect: non-scaling-stroke; fill: none; stroke: rgb(70, 130, 180); stroke-opacity: 1; stroke-width: 1px; opacity: 1;"/></g><g class="points"/><g class="text"/></g><g class="trace scatter trace0d63f1" style="stroke-miterlimit: 2; opacity: 1;"><g class="fills"/><g class="errorbars"/><g class="lines"><path class="js-line" d="M15.77,10.23L26.29,17.06L31.55,19.02L57.83,29.08L63.09,31.13L78.86,37.03L84.12,39.26L120.92,54.14L126.18,56.16L147.21,64.45L152.47,64.44L278.65,64.84L283.91,65.17L304.94,66.05L310.19,66.7L352.25,71.49L357.51,72.37L368.03,74.34L373.28,75.32L399.57,80.49L404.83,80.84L410.09,80.81L415.35,84.69L425.86,94.19L431.12,99.85L446.89,117.64L452.15,119.98L457.41,120.25L462.66,135.98L467.92,153.09L473.18,164.73L478.44,167.8L483.69,172.16L504.72,263.49L509.98,279.54L515.24,292.04L520.5,302.26L531.01,318.61L536.27,325.47L541.53,331.75" style="vector-effect: non-scaling-stroke; fill: none; stroke: rgb(70, 130, 180); stroke-opacity: 1; stroke-width: 1px; opacity: 1;"/></g><g class="points"/><g class="text"/></g><g class="trace scatter tracebee46d" style="stroke-miterlimit: 2; opacity: 1;"><g class="fills"/><g class="errorbars"/><g class="lines"><path class="js-line" d="M15.77,10.23L26.29,17.06L31.55,19.02L57.83,29.08L63.09,31.13L78.86,37.03L84.12,39.26L120.92,54.14L126.18,56.16L147.21,64.45L152.47,64.44L278.65,64.84L283.91,65.17L304.94,66.05L310.19,66.7L352.25,71.49L357.51,72.37L368.03,74.34L373.28,75.32L399.57,80.49L404.83,80.84L410.09,80.81L415.35,84.69L425.86,94.19L431.12,99.85L446.89,117.64L452.15,119.98L457.41,120.25L462.66,135.98L467.92,148.57L473.18,156.2L478.44,159.27L483.69,163.64L494.21,210.99L499.47,237.81L504.72,260.81L509.98,277.85L515.24,290.87L520.5,301.4L531.01,318.07L536.27,325.03L541.53,331.39" style="vector-effect: non-scaling-stroke; fill: none; stroke: rgb(70, 130, 180); stroke-opacity: 1; stroke-width: 1px; opacity: 1;"/></g><g class="points"/><g class="text"/></g><g class="trace scatter trace19af01" style="stroke-miterlimit: 2; opacity: 1;"><g class="fills"/><g class="errorbars"/><g class="lines"><path class="js-line" d="M15.77,10.23L26.29,17.06L31.55,19.02L57.83,29.08L63.09,31.13L78.86,37.03L84.12,39.26L120.92,54.14L126.18,56.16L147.21,64.45L152.47,64.44L278.65,64.84L283.91,65.17L304.94,66.05L310.19,66.7L352.25,71.49L357.51,72.37L368.03,74.34L373.28,75.32L399.57,80.49L404.83,80.84L410.09,80.81L415.35,84.69L425.86,94.19L431.12,99.85L446.89,117.64L452.15,119.98L457.41,120.25L462.66,130.27L467.92,140.04L473.18,147.67L478.44,150.75L483.69,155.12L494.21,204.99L499.47,234.67L504.72,259.18L509.98,276.86L515.24,290.2L520.5,300.9L531.01,317.77L536.27,324.79L541.53,331.18" style="vector-effect: non-scaling-stroke; fill: none; stroke: rgb(70, 130, 180); stroke-opacity: 1; stroke-width: 1px; opacity: 1;"/></g><g class="points"/><g class="text"/></g><g class="trace scatter trace2a99ee" style="stroke-miterlimit: 2; opacity: 1;"><g class="fills"/><g class="errorbars"/><g class="lines"><path class="js-line" d="M15.77,10.23L26.29,17.06L31.55,19.02L57.83,29.08L63.09,31.13L78.86,37.03L84.12,39.26L120.92,54.14L126.18,56.16L147.21,64.45L152.47,64.44L278.65,64.84L283.91,65.17L304.94,66.05L310.19,66.7L352.25,71.49L357.51,72.37L368.03,74.34L373.28,75.32L399.57,80.49L404.83,80.84L410.09,80.81L415.35,84.69L425.86,94.19L431.12,99.85L446.89,110.47L452.15,111.88L457.41,112.06L462.66,121.74L467.92,131.52L473.18,139.19L478.44,142.29L483.69,146.74L488.95,171.53L494.21,200.8L499.47,232.83L504.72,258.28L509.98,276.33L515.24,289.84L525.75,309.71L531.01,317.61L541.53,331.08" style="vector-effect: non-scaling-stroke; fill: none; stroke: rgb(70, 130, 180); stroke-opacity: 1; stroke-width: 1px; opacity: 1;"/></g><g class="points"/><g class="text"/></g><g class="trace scatter trace218ccb" style="stroke-miterlimit: 2; opacity: 1;"><g class="fills"/><g class="errorbars"/><g class="lines"><path class="js-line" d="M15.77,10.23L26.29,17.06L31.55,19.02L57.83,29.08L63.09,31.13L78.86,37.03L84.12,39.26L120.92,54.14L126.18,56.16L147.21,64.45L152.47,64.44L278.65,64.84L283.91,65.17L304.94,66.05L310.19,66.7L352.25,71.49L357.51,72.37L368.03,74.34L373.28,75.32L394.31,78.82L399.57,79.38L410.09,79.7L415.35,82.05L431.12,91.4L436.38,95.08L446.89,101.94L452.15,103.35L457.41,103.54L462.66,113.23L467.92,123.11L473.18,130.96L478.44,134.18L483.69,138.85L488.95,166L494.21,198.18L499.47,231.8L504.72,257.8L509.98,276.04L515.24,289.65L520.5,300.5L525.75,309.61L536.27,324.59L541.53,331.02" style="vector-effect: non-scaling-stroke; fill: none; stroke: rgb(70, 130, 180); stroke-opacity: 1; stroke-width: 1px; opacity: 1;"/></g><g class="points"/><g class="text"/></g><g class="trace scatter trace0dc8e3" style="stroke-miterlimit: 2; opacity: 1;"><g class="fills"/><g class="errorbars"/><g class="lines"><path class="js-line" d="M15.77,10.23L26.29,17.06L31.55,19.02L57.83,29.08L63.09,31.13L78.86,37.03L84.12,39.26L120.92,54.14L126.18,56.16L131.44,58.32L136.7,59.52L152.47,61.03L157.73,61.02L283.91,61.5L289.16,61.68L304.94,62.12L310.19,62.6L357.51,65.98L362.77,66.53L378.54,68.2L383.8,68.44L394.31,70.29L399.57,70.85L410.09,71.17L415.35,73.52L431.12,82.88L436.38,86.56L446.89,93.44L452.15,94.86L457.41,95.05L462.66,104.87L467.92,115.09L473.18,123.46L478.44,126.95L483.69,132.08L494.21,196.68L499.47,231.24L504.72,257.54L509.98,275.89L515.24,289.54L520.5,300.43L531.01,317.48L536.27,324.55L541.53,330.99" style="vector-effect: non-scaling-stroke; fill: none; stroke: rgb(70, 130, 180); stroke-opacity: 1; stroke-width: 1px; opacity: 1;"/></g><g class="points"/><g class="text"/></g><g class="trace scatter traceaff2a8" style="stroke-miterlimit: 2; opacity: 1;"><g class="fills"/><g class="errorbars"/><g class="lines"><path class="js-line" d="M15.77,10.23L26.29,17.06L31.55,19.02L57.83,29.08L63.09,31.13L78.86,37.03L84.12,39.26L99.89,45.49L105.15,46.24L131.44,49.79L136.7,50.99L152.47,52.5L157.73,52.49L283.91,52.97L289.16,53.15L304.94,53.59L310.19,54.07L357.51,57.45L362.77,58L378.54,59.67L383.8,59.91L394.31,61.76L399.57,62.32L410.09,62.64L415.35,64.99L431.12,74.36L436.38,78.06L446.89,85L452.15,86.43L457.41,86.62L462.66,96.71L473.18,116.68L478.44,120.55L483.69,126.26L488.95,159.54L499.47,230.88L504.72,257.37L509.98,275.79L515.24,289.48L520.5,300.38L525.75,309.51L536.27,324.53L541.53,330.97" style="vector-effect: non-scaling-stroke; fill: none; stroke: rgb(70, 130, 180); stroke-opacity: 1; stroke-width: 1px; opacity: 1;"/></g><g class="points"/><g class="text"/></g><g class="trace scatter trace7ba335" style="stroke-miterlimit: 2; opacity: 1;"><g class="fills"/><g class="errorbars"/><g class="lines"><path class="js-line" d="M15.77,10.23L26.29,17.06L31.55,19.02L57.83,29.08L63.09,31.13L78.86,37.03L84.12,39.26L94.64,39.98L99.89,39.94L126.18,40.38L131.44,41.26L141.95,43.14L147.21,43.98L283.91,44.44L289.16,44.62L304.94,45.07L310.19,45.55L357.51,48.92L362.77,49.47L378.54,51.14L383.8,51.38L394.31,53.23L399.57,53.8L410.09,54.12L415.35,56.46L431.12,65.84L436.38,69.56L446.89,76.56L452.15,78.01L457.41,78.21L462.66,88.59L473.18,110.16L478.44,114.48L483.69,120.86L488.95,157.3L499.47,230.61L504.72,257.24L509.98,275.72L515.24,289.43L520.5,300.34L525.75,309.49L536.27,324.51L541.53,330.95" style="vector-effect: non-scaling-stroke; fill: none; stroke: rgb(70, 130, 180); stroke-opacity: 1; stroke-width: 1px; opacity: 1;"/></g><g class="points"/><g class="text"/></g><g class="trace scatter trace40b8e7" style="stroke-miterlimit: 2; opacity: 1;"><g class="fills"/><g class="errorbars"/><g class="lines"><path class="js-line" d="M15.77,10.23L26.29,17.06L31.55,19.02L57.83,29.08L63.09,31.13L84.12,38.83L89.38,38.85L152.47,38.77L157.73,38.85L336.48,39.18L341.74,39.31L357.51,40.39L362.77,40.94L378.54,42.61L383.8,42.85L394.31,44.7L399.57,45.27L410.09,45.59L415.35,47.94L431.12,57.32L436.38,61.04L446.89,68.07L452.15,69.54L457.41,69.74L462.66,80.31L473.18,103.34L478.44,108.11L483.69,115.24L488.95,155.14L499.47,230.36L504.72,257.13L509.98,275.65L515.24,289.39L520.5,300.31L525.75,309.46L536.27,324.49L541.53,330.94" style="vector-effect: non-scaling-stroke; fill: none; stroke: rgb(70, 130, 180); stroke-opacity: 1; stroke-width: 1px; opacity: 1;"/></g><g class="points"/><g class="text"/></g><g class="trace scatter tracefeaaeb" style="stroke-miterlimit: 2; opacity: 1;"><g class="fills"/><g class="errorbars"/><g class="lines"><path class="js-line" d="M15.77,10.23L26.29,17.06L31.55,19.02L57.83,29.08L63.09,31.13L84.12,38.83L89.38,38.85L152.47,38.77L157.73,38.85L336.48,39.18L341.74,39.31L394.31,41.63L399.57,41.94L410.09,42.09L415.35,43.07L425.86,45.93L431.12,48.79L446.89,59.55L452.15,61.02L457.41,61.21L462.66,71.84L473.18,95.63L478.44,100.78L483.69,108.6L488.95,152.59L499.47,230.07L504.72,257L509.98,275.58L515.24,289.34L520.5,300.28L525.75,309.43L536.27,324.48L541.53,330.93" style="vector-effect: non-scaling-stroke; fill: none; stroke: rgb(70, 130, 180); stroke-opacity: 1; stroke-width: 1px; opacity: 1;"/></g><g class="points"/><g class="text"/></g><g class="trace scatter trace230e24" style="stroke-miterlimit: 2; opacity: 1;"><g class="fills"/><g class="errorbars"/><g class="lines"><path class="js-line" d="M15.77,10.23L26.29,17.06L31.55,19.02L57.83,29.08L63.09,31.13L84.12,38.83L89.38,38.85L152.47,38.77L157.73,38.85L336.48,39.18L341.74,39.31L394.31,41.63L399.57,41.94L410.09,42.09L415.35,43.07L431.12,47.68L436.38,49.95L452.15,54.62L457.41,54.73L462.66,63.31L467.92,75.66L473.18,87.25L478.44,92.52L483.69,100.66L488.95,149.04L499.47,229.7L504.72,256.83L509.98,275.48L515.24,289.27L520.5,300.23L525.75,309.4L536.27,324.45L541.53,330.91" style="vector-effect: non-scaling-stroke; fill: none; stroke: rgb(70, 130, 180); stroke-opacity: 1; stroke-width: 1px; opacity: 1;"/></g><g class="points"/><g class="text"/></g><g class="trace scatter tracee74158" style="stroke-miterlimit: 2; opacity: 1;"><g class="fills"/><g class="errorbars"/><g class="lines"><path class="js-line" d="M15.77,10.23L26.29,17.06L31.55,19.02L57.83,29.08L63.09,31.13L84.12,38.83L89.38,38.85L152.47,38.77L157.73,38.85L336.48,39.18L341.74,39.31L394.31,41.63L399.57,41.94L410.09,42.09L415.35,43.07L431.12,47.68L436.38,49.95L452.15,54.62L457.41,54.73L467.92,69.61L473.18,78.72L478.44,84L483.69,92.18L494.21,190.54L499.47,229.12L504.72,256.57L509.98,275.33L515.24,289.17L520.5,300.16L531.01,317.31L536.27,324.42L541.53,330.88" style="vector-effect: non-scaling-stroke; fill: none; stroke: rgb(70, 130, 180); stroke-opacity: 1; stroke-width: 1px; opacity: 1;"/></g><g class="points"/><g class="text"/></g><g class="trace scatter trace229117" style="stroke-miterlimit: 2; opacity: 1;"><g class="fills"/><g class="errorbars"/><g class="lines"><path class="js-line" d="M15.77,10.23L26.29,17.06L31.55,19.02L57.83,29.08L63.09,31.13L84.12,38.83L89.38,38.85L152.47,38.77L157.73,38.85L336.48,39.18L341.74,39.31L394.31,41.63L399.57,41.94L410.09,42.09L415.35,43.07L431.12,47.68L436.38,49.95L452.15,54.62L457.41,54.73L467.92,69.61L473.18,77.1L478.44,80.59L483.69,86.12L494.21,187.63L499.47,228.17L504.72,256.15L509.98,275.09L515.24,289.01L520.5,300.04L531.01,317.24L536.27,324.36L541.53,330.83" style="vector-effect: non-scaling-stroke; fill: none; stroke: rgb(70, 130, 180); stroke-opacity: 1; stroke-width: 1px; opacity: 1;"/></g><g class="points"/><g class="text"/></g><g class="trace scatter trace4d72e5" style="stroke-miterlimit: 2; opacity: 1;"><g class="fills"/><g class="errorbars"/><g class="lines"><path class="js-line" d="M15.77,10.23L26.29,17.06L31.55,19.02L57.83,29.08L63.09,31.13L84.12,38.83L89.38,38.85L152.47,38.77L157.73,38.85L336.48,39.18L341.74,39.31L394.31,41.63L399.57,41.94L410.09,42.09L415.35,43.07L431.12,47.68L436.38,49.95L452.15,54.62L457.41,54.73L467.92,69.61L473.18,77.1L478.44,80.59L483.69,86.12L488.95,127.47L494.21,182.43L499.47,226.42L504.72,255.38L509.98,274.64L515.24,288.71L520.5,299.83L525.75,309.09L536.27,324.26L541.53,330.74" style="vector-effect: non-scaling-stroke; fill: none; stroke: rgb(70, 130, 180); stroke-opacity: 1; stroke-width: 1px; opacity: 1;"/></g><g class="points"/><g class="text"/></g><g class="trace scatter tracedd2404" style="stroke-miterlimit: 2; opacity: 1;"><g class="fills"/><g class="errorbars"/><g class="lines"><path class="js-line" d="M15.77,10.23L26.29,17.06L31.55,19.02L57.83,29.08L63.09,31.13L84.12,38.83L89.38,38.85L152.47,38.77L157.73,38.85L336.48,39.18L341.74,39.31L394.31,41.63L399.57,41.94L410.09,42.09L415.35,43.07L431.12,47.68L436.38,49.95L452.15,54.62L457.41,54.73L467.92,69.61L473.18,77.1L478.44,80.59L483.69,86.12L488.95,122.86L494.21,174.8L499.47,223.23L504.72,253.98L509.98,273.85L515.24,288.19L520.5,299.45L525.75,308.8L536.27,324.07L541.53,330.59" style="vector-effect: non-scaling-stroke; fill: none; stroke: rgb(70, 130, 180); stroke-opacity: 1; stroke-width: 1px; opacity: 1;"/></g><g class="points"/><g class="text"/></g><g class="trace scatter trace13f8b9" style="stroke-miterlimit: 2; opacity: 1;"><g class="fills"/><g class="errorbars"/><g class="lines"><path class="js-line" d="M15.77,10.23L26.29,17.06L31.55,19.02L57.83,29.08L63.09,31.13L84.12,38.83L89.38,38.85L152.47,38.77L157.73,38.85L336.48,39.18L341.74,39.31L394.31,41.63L399.57,41.94L410.09,42.09L415.35,43.07L431.12,47.68L436.38,49.95L452.15,54.62L457.41,54.73L467.92,69.61L473.18,77.1L478.44,80.59L483.69,86.12L488.95,122.86L494.21,166.32L499.47,217.91L504.72,251.6L509.98,272.52L515.24,287.32L520.5,298.82L525.75,308.33L536.27,323.77L541.53,330.34" style="vector-effect: non-scaling-stroke; fill: none; stroke: rgb(70, 130, 180); stroke-opacity: 1; stroke-width: 1px; opacity: 1;"/></g><g class="points"/><g class="text"/></g><g class="trace scatter tracecaf74b" style="stroke-miterlimit: 2; opacity: 1;"><g class="fills"/><g class="errorbars"/><g class="lines"><path class="js-line" d="M15.77,10.23L26.29,17.06L31.55,19.02L57.83,29.08L63.09,31.13L84.12,38.83L89.38,38.85L152.47,38.77L157.73,38.85L336.48,39.18L341.74,39.31L394.31,41.63L399.57,41.94L410.09,42.09L415.35,43.07L431.12,47.68L436.38,49.95L452.15,54.62L457.41,54.73L467.92,69.61L473.18,77.1L478.44,80.59L483.69,86.12L494.21,157.79L499.47,210.62L504.72,247.94L509.98,270.48L515.24,286L520.5,297.88L531.01,315.95L536.27,323.32L541.53,329.97" style="vector-effect: non-scaling-stroke; fill: none; stroke: rgb(70, 130, 180); stroke-opacity: 1; stroke-width: 1px; opacity: 1;"/></g><g class="points"/><g class="text"/></g><g class="trace scatter trace63630d" style="stroke-miterlimit: 2; opacity: 1;"><g class="fills"/><g class="errorbars"/><g class="lines"><path class="js-line" d="M15.77,10.23L26.29,17.06L31.55,19.02L57.83,29.08L63.09,31.13L84.12,38.83L89.38,38.85L152.47,38.77L157.73,38.85L336.48,39.18L341.74,39.31L394.31,41.63L399.57,41.94L410.09,42.09L415.35,43.07L431.12,47.68L436.38,49.95L452.15,54.62L457.41,54.73L467.92,69.61L473.18,77.1L478.44,80.59L483.69,86.12L494.21,157.28L499.47,202.42L504.72,243.14L509.98,267.85L515.24,284.31L520.5,296.69L531.01,315.26L536.27,322.76L541.53,329.51" style="vector-effect: non-scaling-stroke; fill: none; stroke: rgb(70, 130, 180); stroke-opacity: 1; stroke-width: 1px; opacity: 1;"/></g><g class="points"/><g class="text"/></g><g class="trace scatter trace432209" style="stroke-miterlimit: 2; opacity: 1;"><g class="fills"/><g class="errorbars"/><g class="lines"><path class="js-line" d="M15.77,10.23L26.29,17.06L31.55,19.02L57.83,29.08L63.09,31.13L84.12,38.83L89.38,38.85L152.47,38.77L157.73,38.85L336.48,39.18L341.74,39.31L394.31,41.63L399.57,41.94L410.09,42.09L415.35,43.07L431.12,47.68L436.38,49.95L452.15,54.62L457.41,54.73L467.92,69.61L473.18,77.1L478.44,80.59L483.69,86.12L499.47,193.99L504.72,237.72L509.98,264.97L515.24,282.52L520.5,295.45L525.75,305.8L536.27,322.18L541.53,329.03" style="vector-effect: non-scaling-stroke; fill: none; stroke: rgb(70, 130, 180); stroke-opacity: 1; stroke-width: 1px; opacity: 1;"/></g><g class="points"/><g class="text"/></g><g class="trace scatter traceb933cd" style="stroke-miterlimit: 2; opacity: 1;"><g class="fills"/><g class="errorbars"/><g class="lines"><path class="js-line" d="M15.77,10.23L26.29,17.06L31.55,19.02L57.83,29.08L63.09,31.13L84.12,38.83L89.38,38.85L152.47,38.77L157.73,38.85L336.48,39.18L341.74,39.31L394.31,41.63L399.57,41.94L410.09,42.09L415.35,43.07L431.12,47.68L436.38,49.95L452.15,54.62L457.41,54.73L467.92,69.61L473.18,77.1L478.44,80.59L483.69,86.12L488.95,122.86L494.21,149.78L499.47,185.52L504.72,232.36L509.98,262.33L515.24,280.93L520.5,294.36L525.75,305L536.27,321.68L541.53,328.63" style="vector-effect: non-scaling-stroke; fill: none; stroke: rgb(70, 130, 180); stroke-opacity: 1; stroke-width: 1px; opacity: 1;"/></g><g class="points"/><g class="text"/></g><g class="trace scatter trace21dcee" style="stroke-miterlimit: 2; opacity: 1;"><g class="fills"/><g class="errorbars"/><g class="lines"><path class="js-line" d="M15.77,10.23L26.29,17.06L31.55,19.02L57.83,29.08L63.09,31.13L84.12,38.83L89.38,38.85L152.47,38.77L157.73,38.85L336.48,39.18L341.74,39.31L394.31,41.63L399.57,41.94L410.09,42.09L415.35,43.07L431.12,47.68L436.38,49.95L452.15,54.62L457.41,54.73L467.92,69.61L473.18,77.1L478.44,80.59L483.69,86.12L488.95,122.86L494.21,141.25L499.47,177.1L504.72,227.72L509.98,260.29L515.24,279.74L520.5,293.56L525.75,304.41L536.27,321.33L541.53,328.34" style="vector-effect: non-scaling-stroke; fill: none; stroke: rgb(70, 130, 180); stroke-opacity: 1; stroke-width: 1px; opacity: 1;"/></g><g class="points"/><g class="text"/></g><g class="trace scatter tracea7f6ba" style="stroke-miterlimit: 2; opacity: 1;"><g class="fills"/><g class="errorbars"/><g class="lines"><path class="js-line" d="M15.77,10.23L26.29,17.06L31.55,19.02L57.83,29.08L63.09,31.13L84.12,38.83L89.38,38.85L152.47,38.77L157.73,38.85L336.48,39.18L341.74,39.31L394.31,41.63L399.57,41.94L410.09,42.09L415.35,43.07L431.12,47.68L436.38,49.95L452.15,54.62L457.41,54.73L467.92,69.61L473.18,77.1L478.44,80.59L483.69,86.12L488.95,119.71L494.21,132.72L499.47,168.9L504.72,224.31L509.98,258.95L515.24,278.99L520.5,293.06L525.75,304.05L536.27,321.1L541.53,328.16" style="vector-effect: non-scaling-stroke; fill: none; stroke: rgb(70, 130, 180); stroke-opacity: 1; stroke-width: 1px; opacity: 1;"/></g><g class="points"/><g class="text"/></g><g class="trace scatter tracea129b3" style="stroke-miterlimit: 2; opacity: 1;"><g class="fills"/><g class="errorbars"/><g class="lines"><path class="js-line" d="M15.77,10.23L26.29,17.06L31.55,19.02L57.83,29.08L63.09,31.13L84.12,38.83L89.38,38.85L152.47,38.77L157.73,38.85L336.48,39.18L341.74,39.31L394.31,41.63L399.57,41.94L410.09,42.09L415.35,43.07L431.12,47.68L436.38,49.95L452.15,54.62L457.41,54.73L467.92,69.61L473.18,77.1L478.44,80.59L483.69,86.12L488.95,111.18L494.21,124.2L499.47,161.42L504.72,222.19L509.98,258.18L515.24,278.56L520.5,292.77L525.75,303.84L536.27,320.98L541.53,328.06" style="vector-effect: non-scaling-stroke; fill: none; stroke: rgb(70, 130, 180); stroke-opacity: 1; stroke-width: 1px; opacity: 1;"/></g><g class="points"/><g class="text"/></g><g class="trace scatter tracea2a743" style="stroke-miterlimit: 2; opacity: 1;"><g class="fills"/><g class="errorbars"/><g class="lines"><path class="js-line" d="M15.77,10.23L26.29,17.06L31.55,19.02L57.83,29.08L63.09,31.13L84.12,38.83L89.38,38.85L152.47,38.77L157.73,38.85L336.48,39.18L341.74,39.31L394.31,41.63L399.57,41.94L410.09,42.09L415.35,43.07L431.12,47.68L436.38,49.95L452.15,54.62L457.41,54.73L467.92,69.61L473.18,74.29L483.69,80.15L488.95,102.66L494.21,115.78L499.47,155.55L504.72,221.05L509.98,257.78L515.24,278.34L520.5,292.63L525.75,303.74L531.01,312.95L541.53,328.01" style="vector-effect: non-scaling-stroke; fill: none; stroke: rgb(70, 130, 180); stroke-opacity: 1; stroke-width: 1px; opacity: 1;"/></g><g class="points"/><g class="text"/></g><g class="trace scatter traceca1dfc" style="stroke-miterlimit: 2; opacity: 1;"><g class="fills"/><g class="errorbars"/><g class="lines"><path class="js-line" d="M15.77,10.23L26.29,17.06L31.55,19.02L57.83,29.08L63.09,31.13L84.12,38.83L89.38,38.85L152.47,38.77L157.73,38.85L336.48,39.18L341.74,39.31L394.31,41.63L399.57,41.94L410.09,42.09L415.35,43.07L431.12,47.68L436.38,49.78L452.15,52.32L457.41,52.34L467.92,61.08L473.18,65.76L483.69,71.62L488.95,94.25L494.21,107.79L499.47,151.53L504.72,220.43L509.98,257.57L515.24,278.23L520.5,292.55L525.75,303.68L531.01,312.91L541.53,327.98" style="vector-effect: non-scaling-stroke; fill: none; stroke: rgb(70, 130, 180); stroke-opacity: 1; stroke-width: 1px; opacity: 1;"/></g><g class="points"/><g class="text"/></g><g class="trace scatter tracec7300a" style="stroke-miterlimit: 2; opacity: 1;"><g class="fills"/><g class="errorbars"/><g class="lines"><path class="js-line" d="M15.77,10.23L26.29,17.06L31.55,19.02L63.09,30.62L68.35,31.56L78.86,34.21L84.12,35.16L262.88,35.12L268.13,35.1L378.54,35.96L383.8,36.12L404.83,36.92L410.09,36.89L420.6,37.97L425.86,38.93L446.89,43.26L452.15,43.79L457.41,43.82L462.66,47.79L473.18,57.23L478.44,59.79L483.69,63.11L488.95,86.16L494.21,100.65L499.47,148.89L504.72,220.08L509.98,257.45L515.24,278.17L520.5,292.51L525.75,303.65L531.01,312.89L541.53,327.96" style="vector-effect: non-scaling-stroke; fill: none; stroke: rgb(70, 130, 180); stroke-opacity: 1; stroke-width: 1px; opacity: 1;"/></g><g class="points"/><g class="text"/></g><g class="trace scatter tracef7e2e7" style="stroke-miterlimit: 2; opacity: 1;"><g class="fills"/><g class="errorbars"/><g class="lines"><path class="js-line" d="M15.77,10.23L26.29,17.06L31.55,19.02L68.35,23.03L73.61,24.65L84.12,26.63L89.38,26.65L152.47,26.57L157.73,26.65L352.25,26.97L357.51,27.08L394.31,28.07L399.57,28.29L415.35,28.75L420.6,29.44L452.15,35.26L457.41,35.29L467.92,44.03L473.18,48.72L483.69,54.63L488.95,78.46L494.21,94.32L499.47,147.06L504.72,219.86L509.98,257.38L515.24,278.12L520.5,292.49L525.75,303.63L531.01,312.87L541.53,327.95" style="vector-effect: non-scaling-stroke; fill: none; stroke: rgb(70, 130, 180); stroke-opacity: 1; stroke-width: 1px; opacity: 1;"/></g><g class="points"/><g class="text"/></g><g class="trace scatter trace7440bb" style="stroke-miterlimit: 2; opacity: 1;"><g class="fills"/><g class="errorbars"/><g class="lines"><path class="js-line" d="M15.77,10.23L21.03,12.28L26.29,12.28L52.58,12.62L57.83,13.22L68.35,14.5L73.61,16.13L84.12,18.1L89.38,18.12L168.24,18.11L173.5,18.1L373.28,18.78L378.54,18.9L415.35,20.22L420.6,20.91L452.15,26.73L457.41,26.76L467.92,35.5L473.18,40.21L483.69,46.16L488.95,70.9L494.21,88.38L499.47,145.6L504.72,219.69L509.98,257.32L515.24,278.09L520.5,292.47L525.75,303.62L531.01,312.86L541.53,327.95" style="vector-effect: non-scaling-stroke; fill: none; stroke: rgb(70, 130, 180); stroke-opacity: 1; stroke-width: 1px; opacity: 1;"/></g><g class="points"/><g class="text"/></g><g class="trace scatter trace45d716" style="stroke-miterlimit: 2; opacity: 1;"><g class="fills"/><g class="errorbars"/><g class="lines"><path class="js-line" d="M15.77,10.23L21.03,12.11L26.29,12.11L420.6,12.38L425.86,13.35L446.89,17.67L452.15,18.2L457.41,18.23L462.66,22.21L473.18,31.69L478.44,34.27L483.69,37.65L488.95,63.04L494.21,82.12L499.47,144.22L504.72,219.53L509.98,257.27L515.24,278.07L520.5,292.45L525.75,303.61L531.01,312.85L541.53,327.94" style="vector-effect: non-scaling-stroke; fill: none; stroke: rgb(70, 130, 180); stroke-opacity: 1; stroke-width: 1px; opacity: 1;"/></g><g class="points"/><g class="text"/></g></g></g><g class="overplot"/><path class="xlines-above crisp" d="M88.32695913010873,433.604143232096H646.6254218222722" style="fill: none; stroke-width: 1px; stroke: rgb(0, 0, 0); stroke-opacity: 1;"/><path class="ylines-above crisp" d="M88.82695913010873,71.47919010123734V433.104143232096" style="fill: none; stroke-width: 1px; stroke: rgb(0, 0, 0); stroke-opacity: 1;"/><g class="overlines-above"/><g class="xaxislayer-above"><path class="xtick ticks crisp" d="M0,433.104143232096v-5" transform="translate(105.09695913010873,0)" style="stroke: rgb(0, 0, 0); stroke-opacity: 1; stroke-width: 1px;"/><path class="xtick ticks crisp" d="M0,433.104143232096v-5" transform="translate(236.53695913010876,0)" style="stroke: rgb(0, 0, 0); stroke-opacity: 1; stroke-width: 1px;"/><path class="xtick ticks crisp" d="M0,433.104143232096v-5" transform="translate(367.9769591301087,0)" style="stroke: rgb(0, 0, 0); stroke-opacity: 1; stroke-width: 1px;"/><path class="xtick ticks crisp" d="M0,433.104143232096v-5" transform="translate(499.4169591301087,0)" style="stroke: rgb(0, 0, 0); stroke-opacity: 1; stroke-width: 1px;"/><path class="xtick ticks crisp" d="M0,433.104143232096v-5" transform="translate(630.8569591301087,0)" style="stroke: rgb(0, 0, 0); stroke-opacity: 1; stroke-width: 1px;"/><g class="xtick"><text text-anchor="middle" x="0" y="447.304143232096" transform="translate(105.09695913010873,0)" style="font-family: Merriweather, serif; font-size: 11px; fill: rgb(0, 0, 0); fill-opacity: 1; white-space: pre;">0</text></g><g class="xtick"><text text-anchor="middle" x="0" y="447.304143232096" transform="translate(236.53695913010876,0)" style="font-family: Merriweather, serif; font-size: 11px; fill: rgb(0, 0, 0); fill-opacity: 1; white-space: pre;">50</text></g><g class="xtick"><text text-anchor="middle" x="0" y="447.304143232096" transform="translate(367.9769591301087,0)" style="font-family: Merriweather, serif; font-size: 11px; fill: rgb(0, 0, 0); fill-opacity: 1; white-space: pre;">100</text></g><g class="xtick"><text text-anchor="middle" x="0" y="447.304143232096" transform="translate(499.4169591301087,0)" style="font-family: Merriweather, serif; font-size: 11px; fill: rgb(0, 0, 0); fill-opacity: 1; white-space: pre;">150</text></g><g class="xtick"><text text-anchor="middle" x="0" y="447.304143232096" transform="translate(630.8569591301087,0)" style="font-family: Merriweather, serif; font-size: 11px; fill: rgb(0, 0, 0); fill-opacity: 1; white-space: pre;">200</text></g></g><g class="yaxislayer-above"><path class="ytick ticks crisp" d="M89.32695913010873,0h5" transform="translate(0,81.70919010123734)" style="stroke: rgb(0, 0, 0); stroke-opacity: 1; stroke-width: 1px;"/><path class="ytick ticks crisp" d="M89.32695913010873,0h5" transform="translate(0,166.99919010123733)" style="stroke: rgb(0, 0, 0); stroke-opacity: 1; stroke-width: 1px;"/><path class="ytick ticks crisp" d="M89.32695913010873,0h5" transform="translate(0,252.28919010123735)" style="stroke: rgb(0, 0, 0); stroke-opacity: 1; stroke-width: 1px;"/><path class="ytick ticks crisp" d="M89.32695913010873,0h5" transform="translate(0,337.5791901012374)" style="stroke: rgb(0, 0, 0); stroke-opacity: 1; stroke-width: 1px;"/><path class="ytick ticks crisp" d="M89.32695913010873,0h5" transform="translate(0,422.86919010123734)" style="stroke: rgb(0, 0, 0); stroke-opacity: 1; stroke-width: 1px;"/><g class="ytick"><text text-anchor="end" x="86.12695913010873" y="3.8499999999999996" transform="translate(0,81.70919010123734)" style="font-family: Merriweather, serif; font-size: 11px; fill: rgb(0, 0, 0); fill-opacity: 1; white-space: pre;">0</text></g><g class="ytick"><text text-anchor="end" x="86.12695913010873" y="3.8499999999999996" transform="translate(0,166.99919010123733)" style="font-family: Merriweather, serif; font-size: 11px; fill: rgb(0, 0, 0); fill-opacity: 1; white-space: pre;">50</text></g><g class="ytick"><text text-anchor="end" x="86.12695913010873" y="3.8499999999999996" transform="translate(0,252.28919010123735)" style="font-family: Merriweather, serif; font-size: 11px; fill: rgb(0, 0, 0); fill-opacity: 1; white-space: pre;">100</text></g><g class="ytick"><text text-anchor="end" x="86.12695913010873" y="3.8499999999999996" transform="translate(0,337.5791901012374)" style="font-family: Merriweather, serif; font-size: 11px; fill: rgb(0, 0, 0); fill-opacity: 1; white-space: pre;">150</text></g><g class="ytick"><text text-anchor="end" x="86.12695913010873" y="3.8499999999999996" transform="translate(0,422.86919010123734)" style="font-family: Merriweather, serif; font-size: 11px; fill: rgb(0, 0, 0); fill-opacity: 1; white-space: pre;">200</text></g></g><g class="overaxes-above"/></g><g class="subplot x2y2"><rect class="bg" x="150.62979002624672" y="288.45416197975254" width="250.7843082114736" height="101.25498687664043" style="fill: rgb(255, 255, 255); fill-opacity: 1; stroke-width: 0;"/><g class="layer-subplot"><g class="shapelayer"/><g class="imagelayer"/></g><g class="gridlayer"><g class="x2"><path class="x2grid crisp" transform="translate(157.72979002624672,0)" d="M0,288.45416197975254v101.25498687664043" style="stroke: rgb(0, 0, 0); stroke-opacity: 0.1; stroke-width: 0.5px;"/><path class="x2grid crisp" transform="translate(216.86979002624673,0)" d="M0,288.45416197975254v101.25498687664043" style="stroke: rgb(0, 0, 0); stroke-opacity: 0.1; stroke-width: 0.5px;"/><path class="x2grid crisp" transform="translate(276.0197900262467,0)" d="M0,288.45416197975254v101.25498687664043" style="stroke: rgb(0, 0, 0); stroke-opacity: 0.1; stroke-width: 0.5px;"/><path class="x2grid crisp" transform="translate(335.1697900262467,0)" d="M0,288.45416197975254v101.25498687664043" style="stroke: rgb(0, 0, 0); stroke-opacity: 0.1; stroke-width: 0.5px;"/><path class="x2grid crisp" transform="translate(394.3197900262467,0)" d="M0,288.45416197975254v101.25498687664043" style="stroke: rgb(0, 0, 0); stroke-opacity: 0.1; stroke-width: 0.5px;"/></g><g class="y2"><path class="y2grid crisp" transform="translate(0,290.40416197975253)" d="M150.62979002624672,0h250.7843082114736" style="stroke: rgb(0, 0, 0); stroke-opacity: 0.1; stroke-width: 0.5px;"/><path class="y2grid crisp" transform="translate(0,310.3441619797525)" d="M150.62979002624672,0h250.7843082114736" style="stroke: rgb(0, 0, 0); stroke-opacity: 0.1; stroke-width: 0.5px;"/><path class="y2grid crisp" transform="translate(0,330.2841619797525)" d="M150.62979002624672,0h250.7843082114736" style="stroke: rgb(0, 0, 0); stroke-opacity: 0.1; stroke-width: 0.5px;"/><path class="y2grid crisp" transform="translate(0,350.2241619797525)" d="M150.62979002624672,0h250.7843082114736" style="stroke: rgb(0, 0, 0); stroke-opacity: 0.1; stroke-width: 0.5px;"/><path class="y2grid crisp" transform="translate(0,370.1641619797525)" d="M150.62979002624672,0h250.7843082114736" style="stroke: rgb(0, 0, 0); stroke-opacity: 0.1; stroke-width: 0.5px;"/></g></g><g class="zerolinelayer"/><path class="xlines-below"/><path class="ylines-below"/><g class="overlines-below"/><g class="xaxislayer-below"/><g class="yaxislayer-below"/><g class="overaxes-below"/><g class="plot" transform="translate(150.62979002624672,288.45416197975254)" clip-path="url('#clip392465x2y2plot')"><g class="scatterlayer mlayer"><g class="trace scatter trace6f1337" style="stroke-miterlimit: 2; opacity: 1;"><g class="fills"/><g class="errorbars"/><g class="lines"><path class="js-line" d="M7.1,5.56L15.97,22.87L18.93,28.46L39.63,69.44L42.59,75.45L54.42,98.39L57.37,98.24L60.33,88.74L63.29,76.23L69.2,50.51L72.16,41.36L75.12,37.34L78.07,39.16L81.03,45.22L83.99,55.69L92.86,89.67L95.82,94.85L98.78,95.2L101.73,90.01L104.69,80.48L107.65,68.25L113.56,41.55L116.52,32.2L119.48,28.25L122.43,27.36L125.39,27.73L128.35,30.28L134.26,43.19L137.22,52.46L143.14,69.95L146.09,77.11L149.05,81.96L152.01,84.28L154.97,83.19L157.92,79.1L160.88,72.63L163.84,64.21L175.67,24.39L178.62,18.6L181.58,15.86L184.54,15.75L187.5,18.99L190.45,24.58L196.37,40.05L199.33,49.88L205.24,65.58L208.2,70.52L211.16,72.3L214.11,70.82L217.07,66.87L220.03,60.01L225.94,40.84L228.9,29.69L234.81,11.4L237.77,6.25L240.73,2.93L243.69,2.87" style="vector-effect: non-scaling-stroke; fill: none; stroke: rgb(70, 130, 180); stroke-opacity: 1; stroke-width: 1px; opacity: 1;"/></g><g class="points"/><g class="text"/></g></g></g><g class="overplot"/><path class="xlines-above crisp" d="M149.62979002624672,390.20914885639297H402.4140982377203M149.62979002624672,287.95416197975254H402.4140982377203" style="fill: none; stroke-width: 1px; stroke: rgb(0, 0, 0); stroke-opacity: 1;"/><path class="ylines-above crisp" d="M150.12979002624672,288.45416197975254V389.70914885639297M401.9140982377203,288.45416197975254V389.70914885639297" style="fill: none; stroke-width: 1px; stroke: rgb(0, 0, 0); stroke-opacity: 1;"/><g class="overlines-above"/><g class="xaxislayer-above"><path class="x2tick ticks crisp" d="M0,389.70914885639297v-5" transform="translate(157.72979002624672,0)" style="stroke: rgb(0, 0, 0); stroke-opacity: 1; stroke-width: 1px;"/><path class="x2tick ticks crisp" d="M0,389.70914885639297v-5" transform="translate(216.86979002624673,0)" style="stroke: rgb(0, 0, 0); stroke-opacity: 1; stroke-width: 1px;"/><path class="x2tick ticks crisp" d="M0,389.70914885639297v-5" transform="translate(276.0197900262467,0)" style="stroke: rgb(0, 0, 0); stroke-opacity: 1; stroke-width: 1px;"/><path class="x2tick ticks crisp" d="M0,389.70914885639297v-5" transform="translate(335.1697900262467,0)" style="stroke: rgb(0, 0, 0); stroke-opacity: 1; stroke-width: 1px;"/><path class="x2tick ticks crisp" d="M0,389.70914885639297v-5" transform="translate(394.3197900262467,0)" style="stroke: rgb(0, 0, 0); stroke-opacity: 1; stroke-width: 1px;"/><g class="x2tick"><text text-anchor="middle" x="0" y="403.90914885639296" transform="translate(157.72979002624672,0)" style="font-family: Merriweather, serif; font-size: 11px; fill: rgb(0, 0, 0); fill-opacity: 1; white-space: pre;">0</text></g><g class="x2tick"><text text-anchor="middle" x="0" y="403.90914885639296" transform="translate(216.86979002624673,0)" style="font-family: Merriweather, serif; font-size: 11px; fill: rgb(0, 0, 0); fill-opacity: 1; white-space: pre;">2.010</text></g><g class="x2tick"><text text-anchor="middle" x="0" y="403.90914885639296" transform="translate(276.0197900262467,0)" style="font-family: Merriweather, serif; font-size: 11px; fill: rgb(0, 0, 0); fill-opacity: 1; white-space: pre;">4.010</text></g><g class="x2tick"><text text-anchor="middle" x="0" y="403.90914885639296" transform="translate(335.1697900262467,0)" style="font-family: Merriweather, serif; font-size: 11px; fill: rgb(0, 0, 0); fill-opacity: 1; white-space: pre;">6.010</text></g><g class="x2tick"><text text-anchor="middle" x="0" y="403.90914885639296" transform="translate(394.3197900262467,0)" style="font-family: Merriweather, serif; font-size: 11px; fill: rgb(0, 0, 0); fill-opacity: 1; white-space: pre;">8.010</text></g></g><g class="yaxislayer-above"><path class="y2tick ticks crisp" d="M150.62979002624672,0h5" transform="translate(0,290.40416197975253)" style="stroke: rgb(0, 0, 0); stroke-opacity: 1; stroke-width: 1px;"/><path class="y2tick ticks crisp" d="M150.62979002624672,0h5" transform="translate(0,310.3441619797525)" style="stroke: rgb(0, 0, 0); stroke-opacity: 1; stroke-width: 1px;"/><path class="y2tick ticks crisp" d="M150.62979002624672,0h5" transform="translate(0,330.2841619797525)" style="stroke: rgb(0, 0, 0); stroke-opacity: 1; stroke-width: 1px;"/><path class="y2tick ticks crisp" d="M150.62979002624672,0h5" transform="translate(0,350.2241619797525)" style="stroke: rgb(0, 0, 0); stroke-opacity: 1; stroke-width: 1px;"/><path class="y2tick ticks crisp" d="M150.62979002624672,0h5" transform="translate(0,370.1641619797525)" style="stroke: rgb(0, 0, 0); stroke-opacity: 1; stroke-width: 1px;"/><g class="y2tick"><text text-anchor="end" x="147.42979002624674" y="3.8499999999999996" transform="translate(0,290.40416197975253)" style="font-family: Merriweather, serif; font-size: 11px; fill: rgb(0, 0, 0); fill-opacity: 1; white-space: pre;">0</text></g><g class="y2tick"><text text-anchor="end" x="147.42979002624674" y="3.8499999999999996" transform="translate(0,310.3441619797525)" style="font-family: Merriweather, serif; font-size: 11px; fill: rgb(0, 0, 0); fill-opacity: 1; white-space: pre;">25</text></g><g class="y2tick"><text text-anchor="end" x="147.42979002624674" y="3.8499999999999996" transform="translate(0,330.2841619797525)" style="font-family: Merriweather, serif; font-size: 11px; fill: rgb(0, 0, 0); fill-opacity: 1; white-space: pre;">50</text></g><g class="y2tick"><text text-anchor="end" x="147.42979002624674" y="3.8499999999999996" transform="translate(0,350.2241619797525)" style="font-family: Merriweather, serif; font-size: 11px; fill: rgb(0, 0, 0); fill-opacity: 1; white-space: pre;">75</text></g><g class="y2tick"><text text-anchor="end" x="147.42979002624674" y="3.8499999999999996" transform="translate(0,370.1641619797525)" style="font-family: Merriweather, serif; font-size: 11px; fill: rgb(0, 0, 0); fill-opacity: 1; white-space: pre;">100</text></g></g><g class="overaxes-above"/></g></g><g class="polarlayer"/><g class="ternarylayer"/><g class="geolayer"/><g class="funnelarealayer"/><g class="pielayer"/><g class="treemaplayer"/><g class="sunburstlayer"/><g class="glimages"/><defs id="topdefs-392465"><g class="clips"/></defs><g class="layer-above"><g class="imagelayer"/><g class="shapelayer"/></g><g class="infolayer"><g class="g-gtitle"/><g class="g-xtitle"><text class="xtitle" x="367.9761904761904" y="474.8125" text-anchor="middle" style="font-family: Merriweather, serif; font-size: 15px; fill: rgb(0, 0, 0); opacity: 1; font-weight: normal; white-space: pre;">initial depth (m)</text></g><g class="g-x2title"><text class="x2title" x="276.0219441319835" y="430.721875" text-anchor="middle" style="font-family: Merriweather, serif; font-size: 14px; fill: rgb(0, 0, 0); opacity: 1; font-weight: normal; white-space: pre;">time (years)</text></g><g class="g-ytitle"><text class="ytitle" transform="rotate(-90,42.625,252.29166666666669)" x="42.625" y="252.29166666666669" text-anchor="middle" style="font-family: Merriweather, serif; font-size: 15px; fill: rgb(0, 0, 0); opacity: 1; font-weight: normal; white-space: pre;">depth (m)</text></g><g class="g-y2title"><text class="y2title" transform="rotate(-90,104.621875,339.0816554180727)" x="104.621875" y="339.0816554180727" text-anchor="middle" style="font-family: Merriweather, serif; font-size: 14px; fill: rgb(0, 0, 0); opacity: 1; font-weight: normal; white-space: pre;">depth (m)</text></g><g class="annotation" data-index="0" style="opacity: 1;"><g class="annotation-text-g" transform="rotate(0,205.62979002624672,288.4749718785152)"><g class="cursor-pointer" transform="translate(151,277)"><rect class="bg" x="0.5" y="0.5" width="109" height="22" style="stroke-width: 1px; stroke: rgb(0, 0, 0); stroke-opacity: 0; fill: rgb(0, 0, 0); fill-opacity: 0;"/><text class="annotation-text" text-anchor="middle" x="55" y="17" style="font-family: Merriweather, serif; font-size: 17px; fill: rgb(0, 0, 0); fill-opacity: 1; white-space: pre;">sea level curve</text></g></g></g></g></svg>